<?xml version="1.0" encoding="UTF-8" standalone="no"?><!DOCTYPE svg PUBLIC "-//W3C//DTD SVG 1.1//EN" "http://www.w3.org/Graphics/SVG/1.1/DTD/svg11.dtd"><svg width="100%" height="100%" viewBox="0 0 3146 628" version="1.1" xmlns="http://www.w3.org/2000/svg" xmlns:xlink="http://www.w3.org/1999/xlink" xml:space="preserve" xmlns:serif="http://www.serif.com/" style="fill-rule:evenodd;clip-rule:evenodd;stroke-linejoin:round;stroke-miterlimit:2;"><g id="Logo-A-Place-For-You" serif:id="Logo A Place For You"><ellipse id="ellipse838" cx="267.176" cy="266.104" rx="267.176" ry="266.103" style="fill:#fff;fill-opacity:0.99;"/><path id="path840" d="M270.02,0c-25.478,0.001 -50.825,3.631 -75.27,10.78c25.393,20.137 48.108,46.432 62.006,74.923c27.696,56.78 7.538,104.367 -17.285,148.633c-15.223,35.415 -52.099,64.628 -48.292,105.356c1.608,17.199 34.457,18.099 62.813,18.096c16.892,-0.001 31.317,0.985 38.996,1.301c85.386,3.51 137.886,-0.479 220.863,15.795c15.389,-34.216 23.345,-71.288 23.346,-108.78c0,-0 0,-0 0,-0.001c0,-145.98 -120.607,-266.103 -267.176,-266.103c-0,-0 -0.001,0 -0.001,0Zm-141.544,40.414c-78.066,48.568 -125.631,134.016 -125.631,225.69c-0,145.98 120.606,266.103 267.175,266.104c44.695,-0 88.683,-11.17 127.922,-32.484c-16.856,-11.655 -39.159,-20.625 -50.1,-23.966c-51.693,-20.824 -115.776,-31.381 -171.813,-33.382c-33.678,-3.436 -73.473,-20.515 -84.966,-51.592c-14.478,-39.148 10.836,-86.737 38.991,-118.991c61.386,-74.489 114.386,-122.16 35.615,-206.88c-12.782,-13.748 -26.988,-20.541 -37.193,-24.499Z" style="fill:url(#_Radial1);fill-rule:nonzero;"/><g id="flowRoot848"><path id="path795" d="M584.071,477.356l-0,-435.936l49.13,-0l0,387.035l170.622,-0l0,48.901l-219.752,-0Z" style="fill:#004b8f;fill-opacity:0.99;fill-rule:nonzero;"/><path id="path797" d="M885.33,477.356l-48.062,-0l0,-327.399l48.062,-0l0,327.399Zm-51.8,-415.958c-0,-11.927 2.67,-20.574 8.01,-25.941c5.519,-5.368 12.283,-8.051 20.293,-8.051c7.477,-0 13.974,2.683 19.492,8.051c5.697,5.367 8.545,14.014 8.545,25.941c-0,11.728 -2.848,20.375 -8.545,25.941c-5.518,5.566 -12.015,8.349 -19.492,8.349c-8.01,0 -14.774,-2.783 -20.293,-8.349c-5.34,-5.566 -8.01,-14.213 -8.01,-25.941Z" style="fill:#004b8f;fill-opacity:0.99;fill-rule:nonzero;"/><path id="path799" d="M1086.73,191.702l-73.963,-0l0,285.654l-48.062,-0l-0,-285.654l-51.267,-0l0,-25.047l51.267,-18.487l-0,-18.786c-0,-39.757 7.743,-69.574 23.23,-89.453c15.665,-19.878 39.696,-29.818 72.094,-29.818c18.691,0 37.649,3.678 56.874,11.033l-12.817,42.043c-16.555,-5.964 -31.063,-8.945 -43.523,-8.945c-16.199,-0 -28.215,5.963 -36.047,17.89c-7.832,11.927 -11.749,30.812 -11.749,56.654l0,21.171l73.963,-0l0,41.745Z" style="fill:#004b8f;fill-opacity:0.99;fill-rule:nonzero;"/><path id="path801" d="M1237.92,483.319c-43.968,0 -78.502,-14.809 -103.601,-44.428c-24.921,-29.818 -37.382,-70.768 -37.382,-122.849c-0,-52.48 11.66,-94.224 34.979,-125.235c23.319,-31.209 54.827,-46.814 94.523,-46.814c36.848,0 66.219,13.319 88.114,39.956c21.895,26.438 32.843,62.319 32.843,107.642l-0,32.502l-200.794,-0c0.889,37.172 9.344,65.4 25.366,84.682c16.021,19.282 38.717,28.923 68.088,28.923c15.665,0 30.529,-1.491 44.592,-4.472c14.062,-3.181 30.528,-9.244 49.397,-18.189l0,47.112c-16.199,7.752 -31.418,13.219 -45.659,16.4c-14.241,3.18 -31.063,4.77 -50.466,4.77Zm-12.015,-295.494c-22.964,0 -41.121,8.25 -54.471,24.749c-13.351,16.499 -21.272,39.459 -23.764,68.879l149.26,0c-0.356,-30.613 -6.675,-53.871 -18.958,-69.774c-12.282,-15.902 -29.638,-23.854 -52.067,-23.854Z" style="fill:#004b8f;fill-opacity:0.99;fill-rule:nonzero;"/><path id="path803" d="M1568.82,83.463c-42.011,0 -75.031,15.704 -99.062,47.112c-24.032,31.408 -36.047,74.346 -36.047,128.813c-0,56.256 11.659,99.691 34.978,130.304c23.32,30.414 56.518,45.621 99.597,45.621c27.769,-0 59.01,-5.765 93.721,-17.294l0,47.708c-16.554,6.759 -32.486,11.331 -47.795,13.716c-15.309,2.584 -32.932,3.876 -52.869,3.876c-57.497,0 -101.821,-19.48 -132.973,-58.442c-30.973,-39.161 -46.46,-94.523 -46.46,-166.085c-0,-44.926 7.387,-84.285 22.162,-118.079c14.953,-33.793 36.581,-59.834 64.884,-78.122c28.482,-18.289 61.948,-27.433 100.398,-27.433c41.298,0 77.256,8.548 107.873,25.644l-19.759,46.515c-31.151,-15.902 -60.701,-23.854 -88.648,-23.854Z" style="fill:#004b8f;fill-opacity:0.99;fill-rule:nonzero;"/><path id="path805" d="M1913.61,477.356l-0,-209.321c-0,-26.637 -5.341,-46.416 -16.021,-59.337c-10.503,-13.12 -27.058,-19.68 -49.665,-19.68c-29.727,0 -51.533,9.244 -65.418,27.731c-13.707,18.487 -20.56,49 -20.56,91.54l-0,169.067l-48.063,-0l0,-463.965l48.063,0l-0,135.969c-0,17.891 -0.89,33.198 -2.67,45.92l3.204,-0c8.722,-15.903 21.094,-28.327 37.115,-37.272c16.021,-8.946 34.089,-13.419 54.204,-13.419c35.601,0 62.392,9.542 80.371,28.626c17.979,18.884 26.968,49.199 26.968,90.944l0,213.197l-47.528,-0Z" style="fill:#004b8f;fill-opacity:0.99;fill-rule:nonzero;"/><path id="path807" d="M2070.68,149.957l-0,210.811c-0,26.439 5.251,46.119 15.754,59.04c10.68,12.722 27.146,19.083 49.397,19.083c30.084,0 51.979,-9.343 65.686,-28.029c13.706,-18.686 20.56,-48.801 20.56,-90.348l-0,-170.557l48.329,-0l0,327.399l-39.518,-0l-6.942,-43.236l-2.403,0c-8.723,15.704 -21.094,27.83 -37.115,36.378c-16.021,8.548 -34.623,12.821 -55.806,12.821c-35.246,0 -61.858,-9.442 -79.837,-28.326c-17.801,-18.885 -26.702,-49.1 -26.702,-90.646l0,-214.39l48.597,-0Z" style="fill:#004b8f;fill-opacity:0.99;fill-rule:nonzero;"/><path id="path809" d="M2473.4,143.993c12.995,0 24.476,1.193 34.445,3.578l-5.875,49.498c-10.858,-2.783 -21.45,-4.175 -31.774,-4.175c-15.487,0 -29.906,4.771 -43.257,14.313c-13.172,9.542 -23.497,22.761 -30.973,39.657c-7.477,16.698 -11.215,35.285 -11.215,55.76l0,174.732l-48.062,-0l-0,-327.399l39.518,-0l5.34,59.934l2.136,-0c11.215,-21.668 24.477,-38.068 39.785,-49.2c15.309,-11.132 31.953,-16.698 49.932,-16.698Z" style="fill:#004b8f;fill-opacity:0.99;fill-rule:nonzero;"/><path id="path811" d="M2648.1,483.319c-42.188,0 -75.031,-14.411 -98.528,-43.235c-23.497,-29.023 -35.246,-70.569 -35.246,-124.639c0,-54.864 11.838,-97.106 35.513,-126.725c23.853,-29.818 57.764,-44.727 101.732,-44.727c14.241,0 28.304,1.69 42.189,5.069c14.062,3.181 25.633,7.355 34.711,12.524l-14.685,44.726c-24.744,-10.336 -45.838,-15.505 -63.283,-15.505c-29.549,0 -51.355,10.436 -65.418,31.309c-14.063,20.673 -21.094,51.585 -21.094,92.733c-0,39.558 7.031,69.873 21.094,90.944c14.063,20.873 34.89,31.309 62.481,31.309c25.812,-0 51.178,-6.361 76.099,-19.083l0,47.708c-20.293,11.728 -45.481,17.592 -75.565,17.592Z" style="fill:#004b8f;fill-opacity:0.99;fill-rule:nonzero;"/><path id="path813" d="M2966.18,477.356l-0,-209.321c-0,-26.637 -5.34,-46.416 -16.021,-59.337c-10.503,-13.12 -27.057,-19.68 -49.665,-19.68c-29.727,0 -51.533,9.244 -65.418,27.731c-13.707,18.487 -20.56,49 -20.56,91.54l0,169.067l-48.062,-0l-0,-463.965l48.062,0l0,135.969c0,17.891 -0.89,33.198 -2.67,45.92l3.204,-0c8.722,-15.903 21.094,-28.327 37.115,-37.272c16.021,-8.946 34.089,-13.419 54.204,-13.419c35.602,0 62.392,9.542 80.371,28.626c17.979,18.884 26.968,49.199 26.968,90.944l0,213.197l-47.528,-0Z" style="fill:#004b8f;fill-opacity:0.99;fill-rule:nonzero;"/></g><g id="flowRoot876"><path id="path816" d="M2214.07,568.468c-15.465,2.515 -28.41,5.477 -38.833,8.887c-6.268,7.546 -13.149,16.601 -20.644,27.165l-5.416,7.797c-0.954,1.397 -2.418,3.41 -4.394,6.037c-2.18,3.074 -4.463,4.611 -6.847,4.611c-1.295,-0 -2.385,-0.419 -3.27,-1.258c-0.886,-0.726 -1.329,-1.537 -1.329,-2.431c0,-1.565 2.555,-6.009 7.665,-13.331c2.793,-3.968 7.017,-9.586 12.672,-16.852c2.18,-2.795 3.917,-5.087 5.212,-6.875c-4.088,0.95 -7.835,2.04 -11.242,3.27c-1.635,0.614 -2.998,0.922 -4.088,0.922c-1.362,-0 -2.418,-0.503 -3.168,-1.509c-0.545,-0.615 -0.817,-1.342 -0.817,-2.18c-0,-1.901 0.817,-3.242 2.453,-4.025c2.657,-1.341 7.426,-2.878 14.307,-4.611c5.109,-1.341 9.163,-2.571 12.161,-3.689c1.43,-1.453 5.178,-5.729 11.241,-12.828c2.589,-3.074 9.947,-10.34 22.074,-21.799c8.721,-8.384 17.714,-16.181 26.979,-23.392c5.382,-4.248 9.504,-6.372 12.366,-6.372c1.771,0 3.304,0.587 4.598,1.761c1.09,1.062 1.636,2.236 1.636,3.521c-0,1.565 -0.954,4.304 -2.862,8.217c-3.27,6.875 -6.404,14.225 -9.402,22.05c-2.589,6.931 -4.326,12.241 -5.212,15.93c1.227,0 2.044,-0.028 2.453,-0.083c1.976,-0.056 3.611,-0.084 4.905,-0.084c3.952,-0 5.928,1.23 5.928,3.689c-0,1.062 -0.443,2.124 -1.329,3.186c-0.818,1.006 -1.771,1.621 -2.861,1.845c-0.409,0.111 -1.533,0.167 -3.373,0.167c-3.883,0 -6.779,0.196 -8.686,0.587c-1.635,3.969 -4.224,14.114 -7.767,30.435c-1.84,10.843 -2.725,17.495 -2.657,19.954c-0,4.025 -1.465,6.037 -4.394,6.037c-2.317,-0 -4.122,-0.978 -5.417,-2.935c-0.953,-1.341 -1.43,-3.158 -1.43,-5.449c-0,-7.714 1.669,-18.11 5.007,-31.19c1.703,-6.595 2.964,-11.654 3.781,-15.175l0,-0Zm2.862,-9.055c0.613,-1.621 2.18,-5.953 4.701,-12.996c0.613,-1.844 2.18,-5.505 4.701,-10.983c2.52,-5.645 4.53,-10.173 6.029,-13.583c-4.428,2.404 -8.925,5.59 -13.49,9.558c-16.078,14.198 -27.422,25.796 -34.03,34.795c2.521,-0.503 7.937,-1.761 16.249,-3.773c2.384,-0.559 7.664,-1.565 15.84,-3.018Z" style="fill-rule:nonzero;"/><path id="path818" d="M2327.6,574.672l-1.431,2.515c-7.085,12.074 -11.82,20.681 -14.205,25.824c-3.679,8.048 -5.757,12.744 -6.234,14.085c-1.43,3.745 -3.304,5.617 -5.62,5.617c-1.635,0 -3.032,-0.614 -4.19,-1.844c-1.022,-1.062 -1.533,-2.208 -1.533,-3.438c-0,-4.807 7.528,-19.982 22.585,-45.526c-2.726,-1.677 -4.088,-3.354 -4.088,-5.03c-0,-1.286 0.681,-2.404 2.044,-3.354c1.158,-0.783 2.418,-1.174 3.781,-1.174c0.954,0 2.214,0.196 3.781,0.587c11.105,-17.327 17.612,-28.366 19.519,-33.118c-1.703,0.783 -3.883,1.901 -6.54,3.354c-1.499,0.783 -2.828,1.174 -3.986,1.174c-1.294,-0 -2.35,-0.531 -3.168,-1.593c-0.545,-0.727 -0.817,-1.481 -0.817,-2.264c-0,-2.627 2.759,-5.45 8.277,-8.468c4.429,-2.403 8.551,-4.416 12.366,-6.036c0.613,-1.342 0.988,-2.264 1.124,-2.767c0.681,-2.124 1.397,-3.55 2.146,-4.276c0.749,-0.727 1.908,-1.09 3.475,-1.09c3.202,-0 4.803,1.453 4.803,4.36c4.701,-1.118 8.857,-1.957 12.467,-2.516c3.611,-0.559 6.677,-0.838 9.198,-0.838c6.608,-0 12.195,2.068 16.76,6.204c4.292,3.913 6.438,8.301 6.438,13.164c-0,8.44 -4.292,16.88 -12.877,25.32c-7.358,7.154 -16.487,12.744 -27.388,16.768c-9.401,3.41 -18.803,5.115 -28.205,5.115c-2.248,-0 -5.076,-0.252 -8.482,-0.755Zm28.614,-51.144c-2.248,5.534 -5.927,12.633 -11.037,21.296c-6.268,10.508 -10.321,17.383 -12.161,20.625c3.747,0.559 6.37,0.839 7.869,0.839c7.767,-0 16.828,-2.571 27.184,-7.714c10.015,-5.03 17.85,-11.262 23.504,-18.696c3.475,-4.528 5.212,-8.552 5.212,-12.074c0,-3.186 -1.328,-5.561 -3.985,-7.126c-2.589,-1.621 -6.541,-2.432 -11.855,-2.432c-4.02,0 -8.107,0.447 -12.263,1.342c-4.088,0.838 -8.244,2.152 -12.468,3.94Z" style="fill-rule:nonzero;"/><path id="path820" d="M2396.07,586.913c-2.044,4.36 -3.577,7.881 -4.599,10.564c-1.022,2.683 -1.533,4.555 -1.533,5.617c0,1.398 0.818,2.096 2.453,2.096c2.452,0 5.62,-1.9 9.504,-5.701c1.839,-1.844 4.565,-5.17 8.175,-9.977c1.431,-1.9 2.93,-2.851 4.497,-2.851c1.771,0 2.657,0.699 2.657,2.096c-0,2.404 -3.372,7.267 -10.117,14.589c-7.018,7.658 -13.524,11.486 -19.519,11.486c-2.589,0 -4.701,-0.894 -6.336,-2.683c-1.159,-1.285 -1.738,-2.85 -1.738,-4.695c0,-3.13 1.159,-7.462 3.475,-12.995c2.316,-5.534 5.757,-12.269 10.322,-20.206c11.718,-20.178 23.675,-36.807 35.87,-49.886c9.742,-10.508 17.815,-15.763 24.22,-15.763c2.044,0 3.713,0.643 5.007,1.929c1.363,1.285 2.044,2.767 2.044,4.443c0,7.826 -8.516,20.849 -25.548,39.071c-7.631,8.105 -16.76,16.209 -27.388,24.314c-2.794,2.124 -6.609,4.975 -11.446,8.552Zm7.256,-13.331c14.17,-9.949 26.843,-22.526 38.016,-37.729c5.791,-7.881 8.686,-13.107 8.686,-15.678c0,-1.23 -0.647,-1.845 -1.941,-1.845c-3.748,0 -10.561,6.121 -20.439,18.362c-8.176,10.061 -16.283,22.357 -24.322,36.89Z" style="fill-rule:nonzero;"/><path id="path822" d="M2454.32,600.915c-2.248,3.241 -4.462,5.98 -6.642,8.216c-4.292,4.36 -8.55,6.54 -12.774,6.54c-3.679,-0 -6.541,-1.426 -8.585,-4.276c-1.294,-1.845 -1.941,-4.025 -1.941,-6.54c-0,-6.204 2.384,-13.051 7.153,-20.541c5.314,-8.328 11.718,-14.728 19.213,-19.2c4.905,-2.907 9.64,-4.36 14.205,-4.36c2.861,0 5.245,0.727 7.153,2.18c1.635,1.286 2.453,2.739 2.453,4.36c-0,1.23 -0.579,2.934 -1.737,5.114c1.021,1.174 1.532,2.208 1.532,3.102c0,1.174 -0.953,3.103 -2.861,5.786c-1.976,2.738 -3.952,6.371 -5.927,10.899c-2.112,4.807 -3.168,8.664 -3.168,11.57c-0,2.348 0.851,4.276 2.555,5.785c0.476,0.392 1.873,1.034 4.189,1.929c1.704,0.67 2.555,1.844 2.555,3.521c0,1.062 -0.477,1.928 -1.43,2.599c-1.022,0.727 -2.215,1.09 -3.577,1.09c-3.679,0 -6.847,-1.341 -9.504,-4.024c-2.18,-2.18 -3.27,-4.919 -3.27,-8.217c-0,-1.118 0.136,-2.962 0.408,-5.533l0,-0Zm12.775,-27.584c-0.818,-1.23 -1.704,-2.125 -2.657,-2.683c-0.954,-0.615 -1.976,-0.923 -3.066,-0.923c-5.178,0 -10.799,3.717 -16.862,11.151c-6.677,8.217 -10.015,15.176 -10.015,20.877c-0,1.397 0.306,2.459 0.919,3.186c0.682,0.727 1.67,1.09 2.964,1.09c3.27,-0 7.086,-2.851 11.446,-8.552c2.452,-3.13 5.484,-7.741 9.095,-13.834c2.385,-3.968 4.122,-6.596 5.212,-7.881c0.545,-0.671 1.533,-1.481 2.964,-2.431Z" style="fill-rule:nonzero;"/><path id="path824" d="M2515.43,562.766c5.383,0 8.074,2.32 8.074,6.959c-0,4.081 -1.942,8.189 -5.825,12.325c-2.998,3.13 -5.621,4.695 -7.869,4.695c-1.908,0 -2.862,-0.894 -2.862,-2.683c0,-0.95 0.273,-1.704 0.818,-2.263c0.204,-0.224 1.022,-0.867 2.453,-1.929c1.226,-0.95 2.486,-2.375 3.781,-4.276c0.885,-1.285 1.328,-2.319 1.328,-3.102c0,-0.894 -0.613,-1.341 -1.839,-1.341c-1.431,-0 -3.611,0.922 -6.541,2.766c-4.633,2.963 -9.265,7.602 -13.898,13.918c-4.769,6.596 -7.154,11.794 -7.154,15.595c0,1.229 0.443,2.319 1.329,3.27c1.294,1.453 3.032,2.18 5.212,2.18c4.292,-0 9.368,-2.18 15.227,-6.54c4.973,-3.745 9.163,-7.49 12.57,-11.235c1.771,-2.068 3.304,-3.102 4.598,-3.102c0.75,-0 1.431,0.279 2.044,0.838c0.545,0.559 0.818,1.118 0.818,1.677c-0,2.068 -3.236,6.093 -9.709,12.073c-10.287,9.391 -19.621,14.086 -28.001,14.086c-5.041,-0 -8.891,-1.481 -11.548,-4.444c-1.907,-2.18 -2.861,-4.751 -2.861,-7.713c-0,-5.813 2.929,-12.549 8.788,-20.206c5.655,-7.322 12.196,-13.219 19.622,-17.691c4.36,-2.571 8.175,-3.857 11.445,-3.857Z" style="fill-rule:nonzero;"/><path id="path826" d="M2543.64,598.651l-0,1.509c-0,1.23 0.375,2.292 1.124,3.186c1.703,2.068 4.497,3.102 8.38,3.102c8.516,0 18.361,-5.366 29.534,-16.098c1.976,-1.844 3.645,-2.766 5.008,-2.766c0.749,-0 1.43,0.307 2.043,0.922c0.409,0.447 0.614,0.866 0.614,1.258c-0,2.179 -3.271,5.868 -9.811,11.067c-5.11,4.08 -10.56,7.406 -16.351,9.977c-5.791,2.571 -11.173,3.857 -16.147,3.857c-5.109,-0 -9.129,-1.454 -12.059,-4.36c-1.975,-2.012 -2.963,-4.751 -2.963,-8.217c-0,-9.446 5.416,-18.696 16.249,-27.751c8.788,-7.378 16.453,-11.068 22.993,-11.068c1.772,0 3.373,0.448 4.803,1.342c1.772,1.174 2.657,2.711 2.657,4.611c0,2.963 -1.669,6.596 -5.007,10.9c-6.881,8.943 -17.237,15.119 -31.067,18.529Zm2.248,-6.54c4.769,-1.341 8.516,-2.851 11.242,-4.527c4.769,-3.019 8.55,-6.428 11.343,-10.229c1.022,-1.342 1.533,-2.543 1.533,-3.605c0,-1.118 -0.647,-1.677 -1.942,-1.677c-1.771,-0 -4.292,1.09 -7.562,3.27c-5.859,3.856 -10.73,9.446 -14.614,16.768Z" style="fill-rule:nonzero;"/><path id="path828" d="M2721.25,519.336c-3.543,3.242 -8.244,8.608 -14.103,16.098c-5.927,7.602 -10.185,13.471 -12.774,17.607c14.716,-2.404 24.901,-3.605 30.556,-3.605c2.725,-0 4.803,0.223 6.234,0.67c1.635,0.447 2.453,1.481 2.453,3.102c-0,3.466 -2.385,5.199 -7.154,5.199l-1.635,-0c-2.044,-0.056 -3.543,-0.084 -4.497,-0.084c-6.744,-0 -17.952,1.817 -33.621,5.45c-9.947,14.029 -18.702,30.798 -26.264,50.305c-1.022,2.962 -2.623,4.443 -4.803,4.443c-1.908,0 -3.509,-0.866 -4.804,-2.599c-1.021,-1.285 -1.532,-2.571 -1.532,-3.856c-0,-1.454 1.873,-6.372 5.62,-14.757c6.2,-13.806 15.057,-28.618 26.571,-44.436c7.289,-9.893 15.295,-20.373 24.015,-31.441c-2.316,-0.279 -3.474,-1.341 -3.474,-3.186c-0,-2.738 3.236,-4.834 9.708,-6.288c8.993,-2.068 17.748,-3.661 26.264,-4.779c9.674,-1.285 17.032,-1.928 22.074,-1.928c7.971,-0 11.957,1.649 11.957,4.947c-0,1.676 -0.92,3.046 -2.76,4.108c-0.749,0.447 -1.601,0.671 -2.555,0.671c-0.817,-0 -1.975,-0.084 -3.474,-0.252c-2.317,-0.28 -4.326,-0.419 -6.03,-0.419c-3.679,-0 -9.878,0.587 -18.599,1.76c-6.268,0.783 -12.059,1.873 -17.373,3.27l0,0Z" style="fill-rule:nonzero;"/><path id="path830" d="M2767.24,560.67c5.587,0 8.38,2.795 8.38,8.385c0,7.434 -4.19,16.852 -12.57,28.254c-9.129,12.353 -17.952,18.529 -26.468,18.529c-3.951,0 -6.847,-1.509 -8.686,-4.527c-0.954,-1.509 -1.431,-3.326 -1.431,-5.45c-0,-7.154 2.998,-14.924 8.993,-23.308c5.587,-7.769 12.161,-13.806 19.724,-18.11c4.428,-2.515 8.448,-3.773 12.058,-3.773Zm-10.628,31.693c-1.703,-1.118 -2.555,-1.985 -2.555,-2.599c0,-0.448 1.09,-1.677 3.271,-3.69c6.131,-5.645 9.197,-10.2 9.197,-13.666c0,-0.447 -0.17,-0.894 -0.511,-1.341c-0.545,-0.839 -1.397,-1.258 -2.555,-1.258c-2.18,0 -5.382,1.733 -9.606,5.198c-5.451,4.472 -9.606,9.083 -12.468,13.834c-3.338,5.422 -5.007,9.922 -5.007,13.499c-0,0.95 0.306,1.788 0.919,2.515c0.886,1.006 2.01,1.509 3.373,1.509c3.27,0 6.779,-2.012 10.526,-6.036c1.635,-1.677 2.963,-3.41 3.985,-5.199c1.022,-1.788 1.499,-2.71 1.431,-2.766l0,-0Z" style="fill-rule:nonzero;"/><path id="path832" d="M2794.94,587.164c6.677,-5.869 14.375,-11.598 23.096,-17.187c3.134,-2.012 6.472,-3.885 10.015,-5.618c1.771,-0.838 2.895,-1.257 3.372,-1.257c1.022,-0 2.044,0.615 3.066,1.844c0.613,0.671 0.92,1.286 0.92,1.845c-0,1.006 -1.295,2.375 -3.884,4.108c-6.949,4.528 -10.423,7.937 -10.423,10.229c-0,1.285 0.885,1.928 2.657,1.928c2.929,0 7.971,-1.984 15.124,-5.953c1.227,-0.67 2.249,-1.006 3.066,-1.006c0.545,0 1.09,0.224 1.635,0.671c0.613,0.503 0.92,1.034 0.92,1.593c0,1.677 -2.861,4.248 -8.584,7.713c-5.996,3.69 -11.684,5.534 -17.067,5.534c-2.18,0 -4.19,-0.475 -6.029,-1.425c-1.567,-0.783 -2.351,-2.18 -2.351,-4.192c0,-1.398 0.716,-2.991 2.147,-4.779c-5.383,3.13 -11.719,8.496 -19.009,16.097c-4.224,4.695 -8.414,10.481 -12.569,17.356c-1.567,2.571 -3.509,3.856 -5.825,3.856c-2.521,0 -3.782,-0.978 -3.782,-2.934c0,-1.901 1.976,-6.987 5.928,-15.259c5.859,-12.297 11.99,-21.827 18.395,-28.59c3.951,-4.193 7.255,-6.289 9.912,-6.289c0.886,0 1.704,0.224 2.453,0.671c0.886,0.559 1.329,1.258 1.329,2.096c-0,0.839 -0.682,2.012 -2.044,3.522c-0.273,0.279 -2.078,2.152 -5.417,5.617c-3.065,3.298 -5.416,6.568 -7.051,9.809Z" style="fill-rule:nonzero;"/><path id="path834" d="M2963.25,560.083c-5.383,4.304 -11.923,9.279 -19.622,14.924c-4.36,3.186 -8.243,5.758 -11.65,7.714c-3.543,2.124 -7.256,3.186 -11.139,3.186c-3.883,-0 -6.847,-1.677 -8.891,-5.031c-1.09,-1.788 -1.635,-3.717 -1.635,-5.785c0,-7.043 3.475,-15.79 10.424,-26.242c6.2,-9.335 14.75,-18.39 25.65,-27.165c10.833,-8.776 18.498,-13.163 22.994,-13.163c1.09,-0 2.044,0.335 2.862,1.006c0.749,0.67 1.124,1.481 1.124,2.431c-0,1.565 -0.682,2.851 -2.044,3.857c-1.09,0.782 -2.691,1.705 -4.803,2.767c-3.816,1.956 -8.551,5.198 -14.205,9.725c-8.993,7.267 -16.147,15.12 -21.461,23.56c-5.859,9.334 -8.789,15.93 -8.789,19.787c0,0.838 0.307,1.593 0.92,2.263c0.818,0.951 1.908,1.426 3.27,1.426c2.589,-0 7.018,-2.04 13.286,-6.121c7.494,-4.751 13.557,-9.194 18.19,-13.331c13.49,-11.961 23.607,-21.659 30.352,-29.093c6.472,-7.21 11.922,-12.967 16.351,-17.271c3.747,-3.633 6.642,-5.45 8.686,-5.45c1.363,0 2.521,0.559 3.475,1.677c0.749,0.894 1.124,1.928 1.124,3.102c-0,1.956 -1.295,4.304 -3.883,7.043c-18.464,19.898 -30.693,33.453 -36.688,40.663c-9.061,11.067 -16.93,22.554 -23.607,34.459c-7.699,13.527 -12.365,22.554 -14,27.081c-1.567,4.192 -3.032,6.847 -4.395,7.965c-1.362,1.118 -2.895,1.677 -4.599,1.677c-3.202,-0 -4.803,-1.258 -4.803,-3.773c0,-2.739 2.146,-8.328 6.439,-16.768c5.041,-10.005 11.207,-19.955 18.497,-29.848c6.199,-8.384 10.389,-14.141 12.57,-17.272Z" style="fill-rule:nonzero;"/><path id="path836" d="M3018.33,560.67c5.587,0 8.38,2.795 8.38,8.385c-0,7.434 -4.19,16.852 -12.57,28.254c-9.129,12.353 -17.952,18.529 -26.468,18.529c-3.952,0 -6.847,-1.509 -8.687,-4.527c-0.953,-1.509 -1.43,-3.326 -1.43,-5.45c-0,-7.154 2.997,-14.924 8.993,-23.308c5.586,-7.769 12.161,-13.806 19.723,-18.11c4.429,-2.515 8.448,-3.773 12.059,-3.773Zm-10.628,31.693c-1.703,-1.118 -2.555,-1.985 -2.555,-2.599c0,-0.448 1.09,-1.677 3.27,-3.69c6.132,-5.645 9.198,-10.2 9.198,-13.666c-0,-0.447 -0.171,-0.894 -0.511,-1.341c-0.545,-0.839 -1.397,-1.258 -2.555,-1.258c-2.18,0 -5.382,1.733 -9.606,5.198c-5.45,4.472 -9.606,9.083 -12.468,13.834c-3.338,5.422 -5.007,9.922 -5.007,13.499c-0,0.95 0.306,1.788 0.919,2.515c0.886,1.006 2.01,1.509 3.373,1.509c3.27,0 6.779,-2.012 10.526,-6.036c1.635,-1.677 2.963,-3.41 3.985,-5.199c1.022,-1.788 1.499,-2.71 1.431,-2.766l-0,-0Z" style="fill-rule:nonzero;"/><path id="path838" d="M3055.94,601.921c-2.929,3.353 -5.518,6.036 -7.766,8.048c-3.952,3.578 -7.869,5.366 -11.753,5.366c-3.338,0 -5.927,-1.229 -7.766,-3.689c-1.295,-1.732 -1.942,-3.801 -1.942,-6.204c-0,-7.21 3.747,-15.483 11.241,-24.817c3.475,-4.36 6.915,-7.686 10.322,-9.977c2.657,-1.845 4.837,-2.767 6.54,-2.767c0.954,-0 1.84,0.335 2.657,1.006c0.682,0.615 1.022,1.23 1.022,1.844c0,1.062 -1.26,2.795 -3.781,5.199c-5.655,5.533 -9.947,10.62 -12.876,15.259c-3.407,5.422 -5.11,9.67 -5.11,12.744c0,0.782 0.204,1.397 0.613,1.844c0.477,0.392 1.124,0.587 1.942,0.587c3.474,0 8.312,-4.08 14.511,-12.241c3.202,-4.248 5.962,-8.943 8.278,-14.085c1.226,-2.795 2.827,-5.282 4.803,-7.462c1.908,-1.956 3.781,-2.935 5.621,-2.935c1.022,0 1.942,0.364 2.759,1.09c0.886,0.783 1.329,1.649 1.329,2.6c-0,2.012 -2.351,6.539 -7.052,13.582c-3.202,4.863 -4.803,8.915 -4.803,12.157c0,3.465 1.124,6.428 3.373,8.887c0.613,0.671 2.486,1.733 5.62,3.186c1.499,0.727 2.249,1.901 2.249,3.522c-0,1.006 -0.546,1.872 -1.636,2.599c-1.022,0.726 -2.282,1.09 -3.781,1.09c-3.406,-0 -6.506,-1.118 -9.299,-3.354c-2.521,-2.012 -4.122,-4.919 -4.804,-8.72c-0.136,-0.503 -0.306,-1.956 -0.511,-4.359l0,-0Z" style="fill-rule:nonzero;"/><path id="path841" d="M3145.26,498.711l-27.797,88.034l-12.365,0l17.782,-88.034l22.38,0Zm-53.345,115.702c-0,-4.192 1.43,-7.546 4.292,-10.061c2.861,-2.571 6.677,-3.857 11.446,-3.857c3.134,0 5.688,0.811 7.664,2.432c1.976,1.565 2.964,3.856 2.964,6.875c-0,3.912 -1.397,7.21 -4.19,9.893c-2.725,2.683 -6.404,4.025 -11.037,4.025c-3.611,-0 -6.37,-0.811 -8.278,-2.432c-1.907,-1.621 -2.861,-3.912 -2.861,-6.875Z" style="fill-rule:nonzero;"/></g></g><defs><radialGradient id="_Radial1" cx="0" cy="0" r="1" gradientUnits="userSpaceOnUse" gradientTransform="matrix(-43.6054,392.147,-384.064,-42.7066,334.3,88.6599)"><stop offset="0" style="stop-color:#00aeff;stop-opacity:0.99"/><stop offset="1" style="stop-color:#00003a;stop-opacity:0.99"/></radialGradient></defs></svg>