<?xml version="1.0" encoding="UTF-8" standalone="no"?><!DOCTYPE svg PUBLIC "-//W3C//DTD SVG 1.1//EN" "http://www.w3.org/Graphics/SVG/1.1/DTD/svg11.dtd"><svg width="100%" height="100%" viewBox="0 0 2463 648" version="1.1" xmlns="http://www.w3.org/2000/svg" xmlns:xlink="http://www.w3.org/1999/xlink" xml:space="preserve" xmlns:serif="http://www.serif.com/" style="fill-rule:evenodd;clip-rule:evenodd;stroke-linejoin:round;stroke-miterlimit:2;"><g id="flowRoot2570-6"><path id="path844" d="M0,467.245l0,-435.936l49.131,-0l-0,387.034l170.621,0l0,48.902l-219.752,-0Z" style="fill:#004b8f;fill-opacity:0.99;fill-rule:nonzero;"/><path id="path846" d="M301.26,467.245l-48.063,-0l0,-327.4l48.063,0l-0,327.4Zm-51.801,-415.958c0,-11.928 2.67,-20.575 8.011,-25.942c5.518,-5.367 12.282,-8.051 20.293,-8.051c7.476,0 13.973,2.684 19.492,8.051c5.696,5.367 8.544,14.014 8.544,25.942c0,11.728 -2.848,20.375 -8.544,25.941c-5.519,5.566 -12.016,8.349 -19.492,8.349c-8.011,0 -14.775,-2.783 -20.293,-8.349c-5.341,-5.566 -8.011,-14.213 -8.011,-25.941Z" style="fill:#004b8f;fill-opacity:0.99;fill-rule:nonzero;"/><path id="path848" d="M502.656,181.59l-73.962,0l-0,285.655l-48.063,-0l0,-285.655l-51.266,0l-0,-25.047l51.266,-18.487l0,-18.785c0,-39.757 7.744,-69.575 23.23,-89.453c15.665,-19.879 39.696,-29.818 72.094,-29.818c18.691,0 37.649,3.678 56.874,11.033l-12.817,42.043c-16.555,-5.964 -31.062,-8.946 -43.523,-8.946c-16.199,0 -28.214,5.964 -36.047,17.891c-7.832,11.927 -11.748,30.812 -11.748,56.654l-0,21.17l73.962,0l0,41.745Z" style="fill:#004b8f;fill-opacity:0.99;fill-rule:nonzero;"/><path id="path850" d="M653.854,473.208c-43.968,0 -78.502,-14.809 -103.601,-44.428c-24.921,-29.818 -37.382,-70.768 -37.382,-122.85c0,-52.479 11.66,-94.224 34.979,-125.234c23.319,-31.21 54.827,-46.814 94.523,-46.814c36.848,-0 66.219,13.318 88.114,39.956c21.896,26.438 32.843,62.319 32.843,107.642l0,32.501l-200.794,0c0.889,37.173 9.345,65.401 25.366,84.683c16.021,19.282 38.717,28.923 68.089,28.923c15.664,-0 30.528,-1.491 44.591,-4.473c14.063,-3.18 30.528,-9.243 49.397,-18.189l0,47.112c-16.198,7.753 -31.418,13.22 -45.659,16.4c-14.241,3.181 -31.063,4.771 -50.466,4.771Zm-12.015,-295.494c-22.963,-0 -41.12,8.25 -54.471,24.749c-13.351,16.499 -21.272,39.459 -23.764,68.879l149.261,-0c-0.357,-30.613 -6.676,-53.871 -18.958,-69.774c-12.283,-15.903 -29.639,-23.854 -52.068,-23.854Z" style="fill:#004b8f;fill-opacity:0.99;fill-rule:nonzero;"/><path id="path852" d="M984.753,73.352c-42.01,-0 -75.031,15.704 -99.062,47.112c-24.031,31.408 -36.047,74.345 -36.047,128.813c-0,56.256 11.66,99.69 34.979,130.303c23.319,30.414 56.518,45.622 99.596,45.622c27.769,-0 59.01,-5.765 93.722,-17.295l-0,47.709c-16.555,6.758 -32.487,11.33 -47.796,13.716c-15.309,2.584 -32.932,3.876 -52.869,3.876c-57.497,0 -101.821,-19.481 -132.972,-58.443c-30.974,-39.16 -46.461,-94.522 -46.461,-166.085c0,-44.925 7.388,-84.285 22.162,-118.078c14.953,-33.794 36.581,-59.835 64.885,-78.123c28.481,-18.288 61.947,-27.432 100.397,-27.432c41.298,-0 77.256,8.548 107.873,25.643l-19.759,46.516c-31.151,-15.903 -60.701,-23.854 -88.648,-23.854Z" style="fill:#004b8f;fill-opacity:0.99;fill-rule:nonzero;"/><path id="path854" d="M1329.54,467.245l-0,-209.321c-0,-26.637 -5.34,-46.417 -16.021,-59.338c-10.502,-13.119 -27.057,-19.679 -49.665,-19.679c-29.727,-0 -51.533,9.243 -65.418,27.73c-13.707,18.487 -20.56,49.001 -20.56,91.541l0,169.067l-48.062,-0l-0,-463.965l48.062,-0l0,135.969c0,17.891 -0.89,33.197 -2.67,45.919l3.204,0c8.723,-15.902 21.094,-28.326 37.115,-37.272c16.021,-8.945 34.089,-13.418 54.204,-13.418c35.602,0 62.392,9.542 80.371,28.625c17.979,18.885 26.968,49.2 26.968,90.944l0,213.198l-47.528,-0Z" style="fill:#004b8f;fill-opacity:0.99;fill-rule:nonzero;"/><path id="path856" d="M1486.61,139.845l0,210.812c0,26.439 5.251,46.118 15.754,59.039c10.681,12.723 27.146,19.084 49.398,19.084c30.083,-0 51.978,-9.343 65.685,-28.029c13.707,-18.686 20.56,-48.802 20.56,-90.348l-0,-170.558l48.329,0l0,327.4l-39.518,-0l-6.942,-43.236l-2.403,-0c-8.722,15.704 -21.094,27.83 -37.115,36.378c-16.021,8.547 -34.623,12.821 -55.806,12.821c-35.246,0 -61.858,-9.442 -79.837,-28.327c-17.801,-18.884 -26.701,-49.1 -26.701,-90.646l-0,-214.39l48.596,0Z" style="fill:#004b8f;fill-opacity:0.99;fill-rule:nonzero;"/><path id="path858" d="M1889.33,133.882c12.995,-0 24.476,1.193 34.445,3.578l-5.874,49.497c-10.859,-2.782 -21.45,-4.174 -31.775,-4.174c-15.487,0 -29.906,4.771 -43.256,14.313c-13.173,9.541 -23.497,22.76 -30.974,39.657c-7.476,16.698 -11.214,35.285 -11.214,55.759l-0,174.733l-48.063,-0l0,-327.4l39.518,0l5.34,59.934l2.137,0c11.214,-21.667 24.476,-38.067 39.785,-49.199c15.308,-11.132 31.952,-16.698 49.931,-16.698Z" style="fill:#004b8f;fill-opacity:0.99;fill-rule:nonzero;"/><path id="path860" d="M2064.03,473.208c-42.189,0 -75.031,-14.412 -98.529,-43.236c-23.497,-29.022 -35.245,-70.568 -35.245,-124.638c-0,-54.865 11.837,-97.107 35.512,-126.725c23.854,-29.818 57.765,-44.727 101.733,-44.727c14.241,-0 28.303,1.689 42.188,5.069c14.063,3.18 25.633,7.355 34.712,12.523l-14.686,44.727c-24.743,-10.337 -45.837,-15.505 -63.282,-15.505c-29.55,-0 -51.356,10.436 -65.419,31.308c-14.062,20.674 -21.094,51.585 -21.094,92.734c0,39.558 7.032,69.873 21.094,90.944c14.063,20.872 34.89,31.309 62.482,31.309c25.811,-0 51.177,-6.362 76.099,-19.084l-0,47.709c-20.294,11.728 -45.482,17.592 -75.565,17.592Z" style="fill:#004b8f;fill-opacity:0.99;fill-rule:nonzero;"/><path id="path862" d="M2382.11,467.245l0,-209.321c0,-26.637 -5.34,-46.417 -16.021,-59.338c-10.502,-13.119 -27.057,-19.679 -49.664,-19.679c-29.728,-0 -51.534,9.243 -65.419,27.73c-13.706,18.487 -20.56,49.001 -20.56,91.541l0,169.067l-48.062,-0l-0,-463.965l48.062,-0l0,135.969c0,17.891 -0.89,33.197 -2.67,45.919l3.204,0c8.723,-15.902 21.094,-28.326 37.115,-37.272c16.021,-8.945 34.089,-13.418 54.204,-13.418c35.602,0 62.392,9.542 80.371,28.625c17.979,18.885 26.969,49.2 26.969,90.944l-0,213.198l-47.529,-0Z" style="fill:#004b8f;fill-opacity:0.99;fill-rule:nonzero;"/></g><g id="flowRoot2580-2"><path id="path865" d="M1716.94,596.553c2.833,-3.413 9.383,-11.619 19.651,-24.619c8.764,-11.111 22.749,-27.124 41.958,-48.039c11.153,-12.128 21.244,-22.295 30.273,-30.501c5.399,-4.938 10.179,-7.407 14.34,-7.407c2.39,-0 4.381,0.689 5.974,2.069c1.417,1.09 2.125,2.469 2.125,4.14c-0,2.469 -1.815,6.354 -5.444,11.655c-0.708,1.09 -4.337,6.355 -10.888,15.796c-11.684,16.993 -19.606,29.121 -23.767,36.383c-11.418,19.899 -19.783,36.856 -25.094,50.872c-3.098,8.351 -4.648,14.488 -4.648,18.409c0,0.872 0.089,1.78 0.266,2.724c0.443,2.832 0.664,4.502 0.664,5.011c-0,2.106 -0.974,4.066 -2.921,5.882c-1.682,1.67 -3.585,2.505 -5.71,2.505c-2.478,0 -4.514,-1.198 -6.107,-3.594c-1.328,-1.816 -1.992,-4.358 -1.992,-7.626c0,-20.552 20.89,-60.929 62.671,-121.133c-21.864,19.172 -46.074,46.623 -72.629,82.353c-5.842,7.771 -10.667,13.036 -14.473,15.795c-3.718,2.687 -7.258,4.031 -10.622,4.031c-3.364,0 -5.842,-1.198 -7.435,-3.595c-1.063,-1.597 -1.594,-3.449 -1.594,-5.555c0,-18.156 13.145,-46.732 39.435,-85.73c-8.94,7.48 -17.527,16.158 -25.759,26.035c-14.959,18.228 -28.325,36.928 -40.098,56.1c-5.577,9.223 -12.348,21.532 -20.315,36.928c-3.983,7.843 -8.586,11.765 -13.809,11.765c-1.328,-0 -2.434,-0.472 -3.319,-1.416c-0.708,-0.654 -1.062,-1.453 -1.062,-2.397c-0,-1.38 1.637,-5.156 4.912,-11.329c6.993,-13.58 12.348,-23.348 16.066,-29.303c19.032,-30.428 41.559,-59.041 67.583,-85.839c10.888,-11.183 18.412,-18.446 22.572,-21.786c4.338,-3.413 7.923,-5.12 10.755,-5.12c1.771,0 3.497,0.654 5.179,1.961c2.036,1.525 3.054,3.268 3.054,5.229c-0,2.178 -1.859,5.773 -5.577,10.784c-10.622,14.234 -20.403,30.211 -29.344,47.93c-7.701,15.977 -12.658,29.521 -14.871,40.632Z" style="fill-rule:nonzero;"/><path id="path867" d="M1833.25,565.289c1.504,0 2.744,0.472 3.717,1.417c0.708,0.798 1.063,1.597 1.063,2.396c-0,1.307 -1.284,3.486 -3.851,6.536c-9.206,11.692 -15.756,21.315 -19.651,28.867c-4.16,7.771 -7.834,15.759 -11.02,23.965c-1.417,3.631 -3.63,5.447 -6.639,5.447c-1.771,-0 -3.187,-0.581 -4.249,-1.743c-0.974,-0.944 -1.461,-1.961 -1.461,-3.05c0,-2.179 2.833,-9.441 8.498,-21.787c4.426,-9.731 11.596,-20.479 21.51,-32.244c3.187,-3.849 5.577,-6.427 7.17,-7.734c1.593,-1.38 3.231,-2.07 4.913,-2.07Zm25.227,-40.414c3.983,0 5.975,1.671 5.975,5.011c0,3.05 -1.947,6.427 -5.842,10.131c-3.718,3.559 -7.303,5.338 -10.755,5.338c-1.682,-0 -3.054,-0.509 -4.116,-1.525c-1.062,-0.944 -1.593,-2.106 -1.593,-3.486c-0,-3.486 2.345,-7.19 7.037,-11.111c3.452,-2.905 6.55,-4.358 9.294,-4.358Z" style="fill-rule:nonzero;"/><path id="path869" d="M1887.83,566.923c8.851,-15.177 17.216,-28.395 25.094,-39.651c7.613,-10.893 12.791,-17.756 15.535,-20.588c3.01,-3.123 5.842,-4.684 8.498,-4.684c1.416,-0 2.7,0.472 3.851,1.416c1.062,0.944 1.593,1.961 1.593,3.05c-0,1.67 -1.505,4.466 -4.515,8.388c-12.835,16.993 -24.607,34.241 -35.318,51.743c-12.393,20.406 -18.589,35.693 -18.589,45.86c0,4.14 0.974,7.408 2.921,9.804c0.354,0.509 1.948,1.67 4.78,3.486c0.531,0.363 0.797,1.089 0.797,2.179c-0,1.452 -0.708,2.796 -2.125,4.03c-1.327,1.162 -2.832,1.743 -4.514,1.743c-2.036,0 -4.293,-1.017 -6.772,-3.05c-3.54,-2.905 -5.665,-6.245 -6.373,-10.022c-0.265,-1.597 -0.575,-4.575 -0.929,-8.932c-9.295,13.725 -18.146,20.588 -26.556,20.588c-4.868,-0 -8.763,-2.251 -11.684,-6.754c-1.947,-2.977 -2.921,-6.354 -2.921,-10.131c0,-11.329 5.046,-22.73 15.137,-34.204c10.002,-11.329 20.757,-16.994 32.264,-16.994c3.187,0 6.462,0.908 9.826,2.723Zm-4.515,8.933c-2.39,-1.307 -4.47,-1.961 -6.24,-1.961c-7.436,0 -14.473,3.74 -21.112,11.22c-8.763,9.731 -13.145,19.136 -13.145,28.214c0,1.089 0.266,2.106 0.797,3.05c1.062,1.815 2.656,2.723 4.78,2.723c3.098,0 6.86,-2.469 11.286,-7.407c5.931,-6.536 11.419,-14.27 16.464,-23.203c1.771,-3.05 3.497,-6.1 5.179,-9.15c-0,-0 0.398,-0.69 1.195,-2.07l0.796,-1.416Z" style="fill-rule:nonzero;"/><path id="path871" d="M1958.86,566.923c8.852,-15.177 17.217,-28.395 25.095,-39.651c7.612,-10.893 12.791,-17.756 15.535,-20.588c3.009,-3.123 5.842,-4.684 8.497,-4.684c1.417,-0 2.7,0.472 3.851,1.416c1.062,0.944 1.593,1.961 1.593,3.05c0,1.67 -1.504,4.466 -4.514,8.388c-12.835,16.993 -24.608,34.241 -35.319,51.743c-12.392,20.406 -18.588,35.693 -18.588,45.86c-0,4.14 0.973,7.408 2.921,9.804c0.354,0.509 1.947,1.67 4.78,3.486c0.531,0.363 0.796,1.089 0.796,2.179c0,1.452 -0.708,2.796 -2.124,4.03c-1.328,1.162 -2.833,1.743 -4.514,1.743c-2.036,0 -4.294,-1.017 -6.772,-3.05c-3.541,-2.905 -5.665,-6.245 -6.373,-10.022c-0.266,-1.597 -0.576,-4.575 -0.93,-8.932c-9.294,13.725 -18.146,20.588 -26.555,20.588c-4.869,-0 -8.763,-2.251 -11.684,-6.754c-1.948,-2.977 -2.922,-6.354 -2.922,-10.131c0,-11.329 5.046,-22.73 15.137,-34.204c10.002,-11.329 20.757,-16.994 32.265,-16.994c3.186,0 6.461,0.908 9.825,2.723Zm-4.514,8.933c-2.39,-1.307 -4.47,-1.961 -6.241,-1.961c-7.435,0 -14.472,3.74 -21.111,11.22c-8.763,9.731 -13.145,19.136 -13.145,28.214c-0,1.089 0.265,2.106 0.797,3.05c1.062,1.815 2.655,2.723 4.78,2.723c3.098,0 6.86,-2.469 11.286,-7.407c5.93,-6.536 11.418,-14.27 16.464,-23.203c1.77,-3.05 3.496,-6.1 5.178,-9.15c0,-0 0.398,-0.69 1.195,-2.07l0.797,-1.416Z" style="fill-rule:nonzero;"/><path id="path873" d="M1998.16,594.374c-2.656,5.665 -4.647,10.24 -5.975,13.726c-1.328,3.486 -1.992,5.919 -1.992,7.298c0,1.816 1.063,2.724 3.187,2.724c3.187,-0 7.303,-2.469 12.348,-7.408c2.39,-2.396 5.931,-6.717 10.622,-12.963c1.859,-2.469 3.807,-3.703 5.843,-3.703c2.301,-0 3.452,0.907 3.452,2.723c-0,3.123 -4.382,9.441 -13.145,18.954c-9.117,9.949 -17.571,14.924 -25.36,14.924c-3.364,-0 -6.108,-1.162 -8.233,-3.486c-1.504,-1.67 -2.257,-3.704 -2.257,-6.1c0,-4.067 1.505,-9.695 4.515,-16.885c3.009,-7.189 7.479,-15.94 13.41,-26.252c15.225,-26.217 30.76,-47.822 46.605,-64.815c12.658,-13.653 23.147,-20.48 31.468,-20.48c2.655,0 4.824,0.836 6.506,2.506c1.77,1.67 2.655,3.595 2.655,5.773c0,10.167 -11.065,27.088 -33.194,50.763c-9.914,10.53 -21.775,21.06 -35.584,31.59c-3.629,2.76 -8.586,6.464 -14.871,11.111Zm9.427,-17.32c18.412,-12.927 34.876,-29.266 49.393,-49.019c7.524,-10.24 11.286,-17.03 11.286,-20.371c-0,-1.598 -0.841,-2.396 -2.523,-2.396c-4.868,-0 -13.72,7.952 -26.555,23.856c-10.622,13.072 -21.156,29.049 -31.601,47.93Z" style="fill-rule:nonzero;"/><path id="path875" d="M2045.16,609.625l-0,1.961c-0,1.597 0.487,2.977 1.46,4.139c2.213,2.687 5.843,4.031 10.888,4.031c11.065,-0 23.856,-6.972 38.373,-20.915c2.567,-2.397 4.735,-3.595 6.506,-3.595c0.973,-0 1.858,0.399 2.655,1.198c0.531,0.581 0.797,1.126 0.797,1.634c-0,2.832 -4.249,7.625 -12.747,14.379c-6.639,5.302 -13.72,9.623 -21.244,12.963c-7.524,3.341 -14.517,5.011 -20.979,5.011c-6.639,0 -11.861,-1.888 -15.667,-5.664c-2.567,-2.615 -3.851,-6.173 -3.851,-10.676c0,-12.273 7.037,-24.292 21.112,-36.056c11.418,-9.587 21.377,-14.38 29.874,-14.38c2.302,0 4.382,0.581 6.241,1.743c2.301,1.525 3.452,3.523 3.452,5.992c0,3.849 -2.169,8.569 -6.506,14.161c-8.94,11.619 -22.395,19.644 -40.364,24.074Zm2.921,-8.497c6.196,-1.743 11.065,-3.703 14.605,-5.882c6.197,-3.922 11.109,-8.352 14.739,-13.29c1.327,-1.743 1.991,-3.304 1.991,-4.684c0,-1.452 -0.841,-2.179 -2.523,-2.179c-2.301,0 -5.576,1.416 -9.825,4.249c-7.613,5.011 -13.942,12.273 -18.987,21.786Z" style="fill-rule:nonzero;"/><path id="path877" d="M2170.37,558.209c5.488,-0 9.604,0.799 12.348,2.396c2.744,1.598 4.116,4.031 4.116,7.299c0,4.285 -1.947,8.424 -5.842,12.418c-3.717,3.776 -9.294,6.827 -16.73,9.15c-4.071,1.235 -7.479,1.852 -10.223,1.852c-3.718,0 -5.577,-1.343 -5.577,-4.03c0,-1.816 1.062,-3.196 3.187,-4.14c0.531,-0.218 3.54,-0.835 9.028,-1.851c3.276,-0.581 6.285,-1.852 9.029,-3.813c2.39,-1.67 3.585,-3.486 3.585,-5.447c0,-1.525 -0.531,-2.65 -1.593,-3.377c-1.062,-0.726 -2.656,-1.089 -4.78,-1.089c-5.134,0 -10.799,1.707 -16.995,5.12c-7.17,3.849 -10.755,8.424 -10.755,13.725c-0,3.777 2.345,8.497 7.037,14.162c5.222,6.172 7.834,11.401 7.834,15.686c-0,6.391 -3.453,11.401 -10.357,15.033c-4.249,2.251 -9.073,3.376 -14.473,3.376c-8.497,0 -14.959,-2.505 -19.385,-7.516c-3.098,-3.558 -4.647,-7.77 -4.647,-12.636c-0,-5.665 1.77,-10.421 5.311,-14.27c2.301,-2.542 4.691,-3.813 7.17,-3.813c2.213,0 3.319,0.726 3.319,2.179c0,0.581 -0.398,1.452 -1.195,2.614c-2.036,3.123 -3.054,6.79 -3.054,11.002c0,3.559 1.549,6.573 4.648,9.042c2.744,2.178 5.886,3.268 9.427,3.268c3.452,-0 6.152,-0.944 8.099,-2.832c1.593,-1.598 2.39,-3.632 2.39,-6.101c0,-3.05 -2.124,-7.008 -6.373,-11.873c-5.842,-6.682 -8.763,-12.745 -8.763,-18.192c-0,-7.262 4.824,-13.689 14.472,-19.281c9.383,-5.374 19.297,-8.061 29.742,-8.061Z" style="fill-rule:nonzero;"/><path id="path879" d="M2216.71,573.35c7.524,-5.228 14.296,-7.843 20.315,-7.843c3.718,0 6.772,1.271 9.162,3.813c2.212,2.251 3.319,4.866 3.319,7.843c-0,5.665 -2.257,12.527 -6.772,20.588c-5.045,8.933 -12.348,17.248 -21.908,24.946c-7.878,6.391 -15.402,9.586 -22.572,9.586c-2.655,-0 -5.09,-0.399 -7.302,-1.198c-2.125,-0.799 -4.028,-1.997 -5.71,-3.595c-0.708,1.017 -1.151,1.67 -1.328,1.961c-1.504,2.687 -2.522,4.321 -3.054,4.902c-0.619,0.581 -1.549,0.871 -2.788,0.871c-1.593,0 -3.098,-0.762 -4.514,-2.287c-0.974,-1.017 -1.461,-2.106 -1.461,-3.268c0,-2.034 5.09,-12.31 15.27,-30.828c14.251,-25.854 30.759,-51.562 49.525,-77.125c7.613,-10.457 12.26,-16.594 13.942,-18.409c1.859,-2.179 3.585,-3.268 5.178,-3.268c1.947,-0 3.674,0.799 5.178,2.396c0.974,1.017 1.461,2.215 1.461,3.595c-0,1.525 -0.841,3.45 -2.523,5.774c-0.354,0.508 -3.142,4.248 -8.365,11.22c-16.022,20.334 -27.706,37.109 -35.053,50.326Zm-26.422,43.9c1.327,1.453 2.655,2.542 3.983,3.268c1.416,0.726 2.877,1.09 4.382,1.09c7.701,-0 15.844,-5.483 24.43,-16.449c3.984,-4.939 7.126,-9.84 9.428,-14.706c2.035,-4.357 3.053,-7.589 3.053,-9.695c0,-1.453 -0.398,-2.506 -1.195,-3.159c-0.796,-0.726 -2.035,-1.089 -3.717,-1.089c-4.072,-0 -8.985,2.287 -14.739,6.862c-5.753,4.503 -11.418,11.002 -16.995,19.499c-2.655,4.067 -4.957,7.88 -6.904,11.438c-1.151,1.961 -1.726,2.941 -1.726,2.941Z" style="fill-rule:nonzero;"/><path id="path881" d="M2305.54,560.279c7.258,-0 10.887,3.631 10.887,10.893c0,9.658 -5.443,21.895 -16.331,36.71c-11.862,16.049 -23.325,24.074 -34.389,24.074c-5.134,0 -8.896,-1.961 -11.286,-5.882c-1.24,-1.961 -1.859,-4.321 -1.859,-7.081c-0,-9.295 3.895,-19.39 11.684,-30.283c7.259,-10.094 15.801,-17.938 25.626,-23.529c5.754,-3.268 10.976,-4.902 15.668,-4.902Zm-13.809,41.176c-2.213,-1.452 -3.319,-2.578 -3.319,-3.377c-0,-0.581 1.416,-2.179 4.248,-4.793c7.967,-7.335 11.95,-13.253 11.95,-17.756c0,-0.581 -0.221,-1.162 -0.664,-1.743c-0.708,-1.089 -1.815,-1.634 -3.319,-1.634c-2.833,0 -6.993,2.251 -12.481,6.754c-7.082,5.81 -12.481,11.801 -16.199,17.974c-4.337,7.044 -6.506,12.89 -6.506,17.538c-0,1.235 0.398,2.324 1.195,3.268c1.151,1.307 2.611,1.961 4.381,1.961c4.249,-0 8.808,-2.615 13.676,-7.843c2.125,-2.179 3.851,-4.43 5.179,-6.754c1.328,-2.324 1.947,-3.522 1.859,-3.595l-0,0Z" style="fill-rule:nonzero;"/><path id="path883" d="M2341.52,594.701c8.675,-7.625 18.677,-15.069 30.008,-22.331c4.071,-2.614 8.409,-5.047 13.012,-7.298c2.301,-1.09 3.762,-1.634 4.381,-1.634c1.328,-0 2.656,0.798 3.984,2.396c0.796,0.872 1.195,1.67 1.195,2.397c-0,1.307 -1.682,3.086 -5.046,5.337c-9.029,5.883 -13.543,10.313 -13.543,13.29c-0,1.67 1.151,2.506 3.452,2.506c3.806,-0 10.357,-2.579 19.651,-7.735c1.593,-0.871 2.921,-1.307 3.983,-1.307c0.708,0 1.417,0.291 2.125,0.872c0.796,0.653 1.195,1.343 1.195,2.069c-0,2.179 -3.718,5.52 -11.153,10.022c-7.79,4.793 -15.181,7.19 -22.174,7.19c-2.833,-0 -5.444,-0.618 -7.834,-1.852c-2.036,-1.017 -3.054,-2.832 -3.054,-5.447c0,-1.815 0.93,-3.885 2.788,-6.209c-6.992,4.067 -15.225,11.039 -24.696,20.915c-5.488,6.1 -10.932,13.617 -16.331,22.549c-2.036,3.341 -4.559,5.011 -7.569,5.011c-3.275,-0 -4.912,-1.271 -4.912,-3.813c-0,-2.469 2.567,-9.077 7.701,-19.825c7.612,-15.977 15.579,-28.359 23.899,-37.146c5.134,-5.447 9.427,-8.17 12.88,-8.17c1.15,-0 2.213,0.29 3.186,0.871c1.151,0.726 1.726,1.634 1.726,2.723c0,1.09 -0.885,2.615 -2.655,4.576c-0.354,0.363 -2.7,2.796 -7.037,7.298c-3.984,4.285 -7.037,8.533 -9.162,12.745Z" style="fill-rule:nonzero;"/><path id="path885" d="M2451.73,560.279c7.258,-0 10.887,3.631 10.887,10.893c0,9.658 -5.444,21.895 -16.331,36.71c-11.862,16.049 -23.325,24.074 -34.389,24.074c-5.134,0 -8.896,-1.961 -11.286,-5.882c-1.24,-1.961 -1.859,-4.321 -1.859,-7.081c-0,-9.295 3.895,-19.39 11.684,-30.283c7.259,-10.094 15.801,-17.938 25.626,-23.529c5.754,-3.268 10.976,-4.902 15.668,-4.902Zm-13.809,41.176c-2.213,-1.452 -3.32,-2.578 -3.32,-3.377c0,-0.581 1.417,-2.179 4.249,-4.793c7.967,-7.335 11.95,-13.253 11.95,-17.756c0,-0.581 -0.221,-1.162 -0.663,-1.743c-0.708,-1.089 -1.815,-1.634 -3.32,-1.634c-2.832,0 -6.993,2.251 -12.481,6.754c-7.081,5.81 -12.481,11.801 -16.198,17.974c-4.338,7.044 -6.507,12.89 -6.507,17.538c0,1.235 0.399,2.324 1.195,3.268c1.151,1.307 2.612,1.961 4.382,1.961c4.249,-0 8.808,-2.615 13.676,-7.843c2.124,-2.179 3.851,-4.43 5.178,-6.754c1.328,-2.324 1.948,-3.522 1.859,-3.595l-0,0Z" style="fill-rule:nonzero;"/></g></svg>