<?xml version="1.0" encoding="UTF-8" standalone="no"?><!DOCTYPE svg PUBLIC "-//W3C//DTD SVG 1.1//EN" "http://www.w3.org/Graphics/SVG/1.1/DTD/svg11.dtd"><svg width="100%" height="100%" viewBox="0 0 3047 658" version="1.1" xmlns="http://www.w3.org/2000/svg" xmlns:xlink="http://www.w3.org/1999/xlink" xml:space="preserve" xmlns:serif="http://www.serif.com/" style="fill-rule:evenodd;clip-rule:evenodd;stroke-linejoin:round;stroke-miterlimit:2;"><g id="Logo-Middlesboro" serif:id="Logo Middlesboro"><ellipse id="ellipse182" cx="267.176" cy="266.104" rx="267.176" ry="266.103" style="fill:#fff;fill-opacity:0.99;"/><path id="ellipse2590" d="M270.02,0c-25.478,0.001 -50.825,3.631 -75.27,10.78c25.393,20.137 48.108,46.432 62.006,74.923c27.696,56.78 7.538,104.367 -17.285,148.633c-15.223,35.415 -52.099,64.628 -48.292,105.356c1.608,17.199 34.457,18.099 62.813,18.096c16.892,-0.001 31.317,0.985 38.996,1.301c85.386,3.51 137.886,-0.479 220.862,15.795c15.39,-34.216 23.346,-71.288 23.347,-108.78c0,-0 0,-0 0,-0.001c0,-145.98 -120.607,-266.103 -267.176,-266.103c-0,0 -0.001,0 -0.001,0Zm-141.544,40.414c-78.066,48.568 -125.631,134.016 -125.631,225.69c-0.001,145.98 120.606,266.103 267.175,266.104c44.695,-0 88.683,-11.17 127.922,-32.484c-16.856,-11.655 -39.159,-20.625 -50.1,-23.966c-51.693,-20.824 -115.776,-31.381 -171.813,-33.382c-33.678,-3.436 -73.473,-20.515 -84.966,-51.592c-14.478,-39.148 10.836,-86.737 38.991,-118.991c61.386,-74.489 114.386,-122.16 35.615,-206.88c-12.782,-13.748 -26.988,-20.541 -37.193,-24.499Z" style="fill:url(#_Radial1);fill-rule:nonzero;"/><g id="flowRoot2570-6"><path id="path844" d="M584.07,477.356l0,-435.936l49.131,-0l-0,387.035l170.622,-0l-0,48.901l-219.753,-0Z" style="fill:#004b8f;fill-opacity:0.99;fill-rule:nonzero;"/><path id="path846" d="M885.33,477.356l-48.062,-0l-0,-327.399l48.062,-0l0,327.399Zm-51.8,-415.958c-0,-11.927 2.67,-20.574 8.01,-25.942c5.518,-5.367 12.283,-8.05 20.293,-8.05c7.476,-0 13.974,2.683 19.492,8.05c5.696,5.368 8.545,14.015 8.545,25.942c-0,11.728 -2.849,20.375 -8.545,25.941c-5.518,5.566 -12.016,8.349 -19.492,8.349c-8.01,0 -14.775,-2.783 -20.293,-8.349c-5.34,-5.566 -8.01,-14.213 -8.01,-25.941Z" style="fill:#004b8f;fill-opacity:0.99;fill-rule:nonzero;"/><path id="path848" d="M1086.73,191.702l-73.963,-0l0,285.654l-48.062,-0l-0,-285.654l-51.267,-0l-0,-25.047l51.267,-18.487l-0,-18.786c-0,-39.757 7.743,-69.574 23.23,-89.453c15.665,-19.879 39.696,-29.818 72.094,-29.818c18.691,0 37.648,3.678 56.873,11.033l-12.816,42.043c-16.555,-5.964 -31.063,-8.946 -43.523,-8.946c-16.199,0 -28.215,5.964 -36.047,17.891c-7.833,11.927 -11.749,30.812 -11.749,56.654l0,21.171l73.963,-0l-0,41.745Z" style="fill:#004b8f;fill-opacity:0.99;fill-rule:nonzero;"/><path id="path850" d="M1237.92,483.319c-43.968,0 -78.502,-14.809 -103.601,-44.428c-24.922,-29.818 -37.382,-70.768 -37.382,-122.849c-0,-52.48 11.659,-94.225 34.979,-125.235c23.319,-31.209 54.826,-46.814 94.522,-46.814c36.848,0 66.22,13.319 88.115,39.956c21.895,26.438 32.843,62.319 32.843,107.642l-0,32.502l-200.795,-0c0.89,37.172 9.345,65.4 25.367,84.682c16.02,19.282 38.717,28.923 68.088,28.923c15.665,0 30.529,-1.491 44.591,-4.473c14.063,-3.18 30.529,-9.243 49.398,-18.188l-0,47.112c-16.199,7.752 -31.419,13.219 -45.659,16.4c-14.241,3.18 -31.063,4.77 -50.466,4.77Zm-12.016,-295.494c-22.963,0 -41.12,8.25 -54.47,24.749c-13.351,16.499 -21.273,39.459 -23.765,68.879l149.261,0c-0.356,-30.613 -6.676,-53.871 -18.958,-69.774c-12.283,-15.902 -29.639,-23.854 -52.068,-23.854Z" style="fill:#004b8f;fill-opacity:0.99;fill-rule:nonzero;"/><path id="path852" d="M1568.82,83.463c-42.01,0 -75.031,15.704 -99.062,47.112c-24.031,31.408 -36.047,74.346 -36.047,128.813c0,56.256 11.66,99.691 34.979,130.304c23.319,30.414 56.518,45.621 99.596,45.621c27.77,-0 59.01,-5.765 93.722,-17.295l0,47.709c-16.555,6.759 -32.487,11.331 -47.795,13.716c-15.309,2.584 -32.932,3.876 -52.869,3.876c-57.497,0 -101.821,-19.481 -132.973,-58.442c-30.974,-39.161 -46.46,-94.523 -46.46,-166.085c-0,-44.926 7.387,-84.285 22.162,-118.079c14.953,-33.793 36.581,-59.834 64.884,-78.122c28.482,-18.289 61.947,-27.433 100.397,-27.433c41.298,0 77.256,8.548 107.874,25.643l-19.759,46.516c-31.152,-15.903 -60.701,-23.854 -88.649,-23.854Z" style="fill:#004b8f;fill-opacity:0.99;fill-rule:nonzero;"/><path id="path854" d="M1913.61,477.356l0,-209.321c0,-26.637 -5.34,-46.416 -16.021,-59.337c-10.502,-13.12 -27.057,-19.68 -49.664,-19.68c-29.728,-0 -51.534,9.243 -65.418,27.731c-13.707,18.486 -20.56,49 -20.56,91.54l-0,169.067l-48.063,-0l0,-463.965l48.063,0l-0,135.969c-0,17.891 -0.89,33.197 -2.671,45.92l3.205,-0c8.722,-15.903 21.094,-28.327 37.115,-37.273c16.02,-8.945 34.088,-13.418 54.203,-13.418c35.602,0 62.393,9.542 80.371,28.625c17.979,18.885 26.969,49.2 26.969,90.945l-0,213.197l-47.529,-0Z" style="fill:#004b8f;fill-opacity:0.99;fill-rule:nonzero;"/><path id="path856" d="M2070.68,149.957l-0,210.811c-0,26.439 5.251,46.119 15.754,59.04c10.68,12.722 27.146,19.083 49.397,19.083c30.084,-0 51.979,-9.343 65.685,-28.029c13.707,-18.686 20.56,-48.802 20.56,-90.348l0,-170.557l48.33,-0l-0,327.399l-39.518,-0l-6.942,-43.236l-2.404,0c-8.722,15.704 -21.094,27.83 -37.114,36.378c-16.021,8.548 -34.623,12.821 -55.806,12.821c-35.246,0 -61.859,-9.442 -79.837,-28.327c-17.801,-18.884 -26.702,-49.099 -26.702,-90.646l0,-214.389l48.597,-0Z" style="fill:#004b8f;fill-opacity:0.99;fill-rule:nonzero;"/><path id="path858" d="M2473.4,143.993c12.994,0 24.476,1.193 34.444,3.578l-5.874,49.498c-10.858,-2.783 -21.45,-4.175 -31.775,-4.175c-15.486,0 -29.905,4.771 -43.256,14.313c-13.172,9.542 -23.497,22.761 -30.973,39.657c-7.477,16.698 -11.215,35.285 -11.215,55.76l-0,174.732l-48.062,-0l-0,-327.399l39.518,-0l5.34,59.933l2.136,0c11.215,-21.667 24.476,-38.067 39.785,-49.199c15.309,-11.132 31.953,-16.698 49.932,-16.698Z" style="fill:#004b8f;fill-opacity:0.99;fill-rule:nonzero;"/><path id="path860" d="M2648.1,483.319c-42.188,0 -75.031,-14.412 -98.528,-43.235c-23.497,-29.023 -35.246,-70.569 -35.246,-124.639c0,-54.864 11.838,-97.106 35.513,-126.725c23.853,-29.818 57.764,-44.727 101.732,-44.727c14.241,0 28.304,1.69 42.188,5.069c14.063,3.181 25.634,7.355 34.712,12.523l-14.686,44.727c-24.743,-10.337 -45.837,-15.505 -63.282,-15.505c-29.549,0 -51.355,10.436 -65.418,31.309c-14.063,20.673 -21.094,51.584 -21.094,92.733c-0,39.558 7.031,69.873 21.094,90.944c14.063,20.873 34.89,31.309 62.481,31.309c25.811,-0 51.178,-6.361 76.099,-19.084l-0,47.709c-20.293,11.728 -45.481,17.592 -75.565,17.592Z" style="fill:#004b8f;fill-opacity:0.99;fill-rule:nonzero;"/><path id="path862" d="M2966.18,477.356l-0,-209.321c-0,-26.637 -5.341,-46.416 -16.021,-59.337c-10.503,-13.12 -27.058,-19.68 -49.665,-19.68c-29.727,-0 -51.533,9.243 -65.418,27.731c-13.707,18.486 -20.56,49 -20.56,91.54l-0,169.067l-48.063,-0l0,-463.965l48.063,0l-0,135.969c-0,17.891 -0.89,33.197 -2.67,45.92l3.204,-0c8.722,-15.903 21.094,-28.327 37.115,-37.273c16.021,-8.945 34.089,-13.418 54.204,-13.418c35.601,0 62.392,9.542 80.371,28.625c17.979,18.885 26.968,49.2 26.968,90.945l0,213.197l-47.528,-0Z" style="fill:#004b8f;fill-opacity:0.99;fill-rule:nonzero;"/></g><g id="flowRoot2580-2"><path id="path865" d="M2301.01,606.664c2.832,-3.413 9.383,-11.619 19.651,-24.618c8.763,-11.112 22.749,-27.125 41.957,-48.04c11.153,-12.128 21.244,-22.295 30.273,-30.501c5.4,-4.938 10.18,-7.407 14.34,-7.407c2.39,-0 4.382,0.69 5.975,2.07c1.416,1.089 2.124,2.469 2.124,4.139c0,2.469 -1.814,6.354 -5.443,11.656c-0.709,1.089 -4.338,6.354 -10.888,15.795c-11.684,16.993 -19.607,29.121 -23.767,36.383c-11.419,19.899 -19.784,36.856 -25.095,50.872c-3.098,8.351 -4.647,14.488 -4.647,18.41c-0,0.871 0.088,1.779 0.265,2.723c0.443,2.832 0.664,4.502 0.664,5.011c0,2.106 -0.973,4.067 -2.921,5.882c-1.682,1.67 -3.585,2.506 -5.709,2.506c-2.479,-0 -4.515,-1.199 -6.108,-3.595c-1.328,-1.816 -1.991,-4.358 -1.991,-7.626c-0,-20.551 20.89,-60.929 62.67,-121.133c-21.864,19.173 -46.073,46.624 -72.629,82.354c-5.842,7.77 -10.666,13.035 -14.472,15.795c-3.718,2.687 -7.259,4.03 -10.622,4.03c-3.364,0 -5.843,-1.198 -7.436,-3.595c-1.062,-1.597 -1.593,-3.449 -1.593,-5.555c-0,-18.156 13.145,-46.732 39.434,-85.73c-8.94,7.48 -17.526,16.158 -25.758,26.035c-14.96,18.228 -28.326,36.928 -40.099,56.1c-5.576,9.223 -12.348,21.532 -20.315,36.928c-3.983,7.843 -8.586,11.765 -13.808,11.765c-1.328,-0 -2.435,-0.472 -3.32,-1.416c-0.708,-0.654 -1.062,-1.453 -1.062,-2.397c-0,-1.379 1.638,-5.156 4.913,-11.329c6.993,-13.58 12.348,-23.348 16.066,-29.302c19.031,-30.429 41.559,-59.042 67.583,-85.839c10.888,-11.184 18.412,-18.446 22.572,-21.787c4.337,-3.413 7.922,-5.12 10.755,-5.12c1.77,0 3.496,0.654 5.178,1.961c2.036,1.525 3.054,3.268 3.054,5.229c-0,2.179 -1.859,5.773 -5.577,10.784c-10.622,14.234 -20.403,30.211 -29.343,47.93c-7.701,15.977 -12.658,29.521 -14.871,40.632Z" style="fill-rule:nonzero;"/><path id="path867" d="M2417.32,575.401c1.505,-0 2.744,0.472 3.718,1.416c0.708,0.799 1.062,1.598 1.062,2.396c-0,1.308 -1.284,3.486 -3.851,6.536c-9.205,11.692 -15.756,21.315 -19.65,28.867c-4.161,7.771 -7.834,15.759 -11.021,23.966c-1.416,3.631 -3.629,5.446 -6.639,5.446c-1.77,0 -3.186,-0.581 -4.249,-1.743c-0.973,-0.944 -1.46,-1.961 -1.46,-3.05c-0,-2.178 2.832,-9.441 8.498,-21.786c4.425,-9.732 11.595,-20.48 21.509,-32.244c3.187,-3.849 5.577,-6.427 7.17,-7.735c1.594,-1.379 3.231,-2.069 4.913,-2.069Zm25.228,-40.414c3.983,-0 5.975,1.67 5.975,5.011c-0,3.05 -1.948,6.427 -5.843,10.13c-3.717,3.559 -7.302,5.338 -10.755,5.338c-1.681,0 -3.053,-0.508 -4.116,-1.525c-1.062,-0.944 -1.593,-2.106 -1.593,-3.486c0,-3.486 2.346,-7.189 7.037,-11.111c3.452,-2.905 6.551,-4.357 9.295,-4.357Z" style="fill-rule:nonzero;"/><path id="path869" d="M2471.89,577.035c8.852,-15.178 17.217,-28.395 25.095,-39.652c7.612,-10.893 12.791,-17.756 15.535,-20.588c3.009,-3.123 5.842,-4.684 8.497,-4.684c1.417,-0 2.7,0.472 3.851,1.416c1.062,0.944 1.593,1.961 1.593,3.05c0,1.67 -1.504,4.466 -4.514,8.388c-12.835,16.993 -24.608,34.241 -35.319,51.743c-12.392,20.407 -18.588,35.693 -18.588,45.86c-0,4.14 0.973,7.408 2.921,9.804c0.354,0.509 1.947,1.671 4.78,3.486c0.531,0.364 0.796,1.09 0.796,2.179c0,1.452 -0.708,2.796 -2.124,4.03c-1.328,1.162 -2.833,1.743 -4.514,1.743c-2.036,0 -4.294,-1.016 -6.772,-3.05c-3.541,-2.905 -5.665,-6.245 -6.373,-10.022c-0.266,-1.597 -0.576,-4.575 -0.93,-8.932c-9.294,13.725 -18.146,20.588 -26.555,20.588c-4.869,0 -8.763,-2.251 -11.684,-6.754c-1.948,-2.977 -2.922,-6.354 -2.922,-10.13c0,-11.329 5.046,-22.731 15.137,-34.205c10.003,-11.329 20.757,-16.994 32.265,-16.994c3.186,0 6.462,0.908 9.825,2.724Zm-4.514,8.932c-2.39,-1.307 -4.47,-1.961 -6.241,-1.961c-7.435,0 -14.472,3.74 -21.111,11.22c-8.763,9.732 -13.145,19.136 -13.145,28.214c-0,1.089 0.265,2.106 0.797,3.05c1.062,1.816 2.655,2.723 4.78,2.723c3.098,0 6.86,-2.469 11.286,-7.407c5.93,-6.536 11.418,-14.27 16.464,-23.203c1.77,-3.05 3.496,-6.1 5.178,-9.15c0,0 0.398,-0.69 1.195,-2.07l0.797,-1.416Z" style="fill-rule:nonzero;"/><path id="path871" d="M2542.93,577.035c8.851,-15.178 17.216,-28.395 25.094,-39.652c7.613,-10.893 12.791,-17.756 15.535,-20.588c3.01,-3.123 5.842,-4.684 8.498,-4.684c1.416,-0 2.7,0.472 3.85,1.416c1.063,0.944 1.594,1.961 1.594,3.05c-0,1.67 -1.505,4.466 -4.515,8.388c-12.835,16.993 -24.608,34.241 -35.318,51.743c-12.393,20.407 -18.589,35.693 -18.589,45.86c0,4.14 0.974,7.408 2.921,9.804c0.354,0.509 1.948,1.671 4.78,3.486c0.531,0.364 0.797,1.09 0.797,2.179c-0,1.452 -0.708,2.796 -2.125,4.03c-1.327,1.162 -2.832,1.743 -4.514,1.743c-2.036,0 -4.293,-1.016 -6.772,-3.05c-3.54,-2.905 -5.665,-6.245 -6.373,-10.022c-0.265,-1.597 -0.575,-4.575 -0.929,-8.932c-9.295,13.725 -18.146,20.588 -26.556,20.588c-4.868,0 -8.763,-2.251 -11.684,-6.754c-1.947,-2.977 -2.921,-6.354 -2.921,-10.13c-0,-11.329 5.045,-22.731 15.136,-34.205c10.003,-11.329 20.758,-16.994 32.265,-16.994c3.187,0 6.462,0.908 9.826,2.724Zm-4.515,8.932c-2.39,-1.307 -4.47,-1.961 -6.24,-1.961c-7.436,0 -14.473,3.74 -21.112,11.22c-8.763,9.732 -13.145,19.136 -13.145,28.214c0,1.089 0.266,2.106 0.797,3.05c1.062,1.816 2.656,2.723 4.78,2.723c3.098,0 6.86,-2.469 11.286,-7.407c5.931,-6.536 11.419,-14.27 16.464,-23.203c1.771,-3.05 3.497,-6.1 5.179,-9.15c-0,0 0.398,-0.69 1.195,-2.07l0.796,-1.416Z" style="fill-rule:nonzero;"/><path id="path873" d="M2582.23,604.486c-2.655,5.664 -4.647,10.239 -5.974,13.725c-1.328,3.486 -1.992,5.919 -1.992,7.299c-0,1.815 1.062,2.723 3.187,2.723c3.186,-0 7.302,-2.469 12.348,-7.407c2.39,-2.397 5.93,-6.718 10.622,-12.963c1.859,-2.47 3.806,-3.704 5.842,-3.704c2.301,-0 3.452,0.908 3.452,2.723c0,3.123 -4.381,9.441 -13.145,18.954c-9.117,9.95 -17.57,14.924 -25.36,14.924c-3.364,0 -6.108,-1.162 -8.232,-3.486c-1.505,-1.67 -2.257,-3.703 -2.257,-6.1c-0,-4.067 1.504,-9.695 4.514,-16.884c3.01,-7.19 7.48,-15.941 13.411,-26.253c15.225,-26.217 30.759,-47.822 46.604,-64.815c12.658,-13.653 23.147,-20.479 31.468,-20.479c2.656,-0 4.824,0.835 6.506,2.505c1.771,1.67 2.656,3.595 2.656,5.774c-0,10.167 -11.065,27.087 -33.194,50.762c-9.914,10.53 -21.776,21.06 -35.585,31.591c-3.629,2.759 -8.586,6.463 -14.871,11.111Zm9.428,-17.321c18.411,-12.926 34.876,-29.266 49.392,-49.019c7.524,-10.24 11.286,-17.03 11.286,-20.371c0,-1.597 -0.84,-2.396 -2.522,-2.396c-4.869,-0 -13.721,7.952 -26.556,23.856c-10.622,13.072 -21.155,29.049 -31.6,47.93Z" style="fill-rule:nonzero;"/><path id="path875" d="M2629.24,619.736l0,1.961c0,1.598 0.487,2.978 1.461,4.139c2.213,2.687 5.842,4.031 10.888,4.031c11.064,-0 23.855,-6.972 38.372,-20.915c2.567,-2.397 4.736,-3.595 6.506,-3.595c0.974,0 1.859,0.4 2.656,1.198c0.531,0.581 0.796,1.126 0.796,1.634c0,2.833 -4.249,7.626 -12.746,14.379c-6.639,5.302 -13.721,9.623 -21.245,12.963c-7.524,3.341 -14.516,5.011 -20.978,5.011c-6.639,0 -11.862,-1.888 -15.668,-5.664c-2.567,-2.614 -3.85,-6.173 -3.85,-10.676c-0,-12.273 7.037,-24.291 21.111,-36.056c11.419,-9.586 21.377,-14.379 29.875,-14.379c2.301,-0 4.381,0.581 6.24,1.743c2.302,1.525 3.452,3.522 3.452,5.991c0,3.849 -2.168,8.569 -6.506,14.161c-8.94,11.62 -22.395,19.644 -40.364,24.074Zm2.921,-8.496c6.197,-1.743 11.065,-3.704 14.606,-5.883c6.196,-3.921 11.109,-8.351 14.738,-13.29c1.328,-1.743 1.992,-3.304 1.992,-4.684c-0,-1.452 -0.841,-2.178 -2.523,-2.178c-2.302,-0 -5.577,1.416 -9.826,4.248c-7.612,5.011 -13.941,12.273 -18.987,21.787Z" style="fill-rule:nonzero;"/><path id="path877" d="M2754.44,568.32c5.488,0 9.604,0.799 12.348,2.397c2.744,1.597 4.116,4.03 4.116,7.298c-0,4.285 -1.947,8.424 -5.842,12.418c-3.718,3.777 -9.295,6.827 -16.73,9.151c-4.072,1.234 -7.48,1.852 -10.224,1.852c-3.718,-0 -5.576,-1.344 -5.576,-4.031c-0,-1.815 1.062,-3.195 3.186,-4.139c0.531,-0.218 3.541,-0.836 9.029,-1.852c3.275,-0.581 6.285,-1.852 9.029,-3.813c2.39,-1.67 3.585,-3.486 3.585,-5.446c-0,-1.526 -0.531,-2.651 -1.594,-3.377c-1.062,-0.727 -2.655,-1.09 -4.78,-1.09c-5.134,0 -10.799,1.707 -16.995,5.12c-7.17,3.849 -10.755,8.424 -10.755,13.726c0,3.776 2.346,8.496 7.037,14.161c5.223,6.173 7.834,11.401 7.834,15.686c0,6.391 -3.452,11.402 -10.356,15.033c-4.249,2.251 -9.074,3.377 -14.473,3.377c-8.498,-0 -14.96,-2.506 -19.386,-7.517c-3.098,-3.558 -4.647,-7.77 -4.647,-12.636c0,-5.664 1.771,-10.421 5.311,-14.27c2.302,-2.542 4.692,-3.813 7.17,-3.813c2.213,0 3.32,0.727 3.32,2.179c-0,0.581 -0.399,1.452 -1.195,2.614c-2.036,3.123 -3.054,6.791 -3.054,11.003c-0,3.558 1.549,6.572 4.647,9.041c2.744,2.179 5.886,3.268 9.427,3.268c3.452,0 6.152,-0.944 8.1,-2.832c1.593,-1.598 2.39,-3.631 2.39,-6.1c-0,-3.051 -2.125,-7.008 -6.374,-11.874c-5.842,-6.681 -8.763,-12.745 -8.763,-18.192c0,-7.262 4.824,-13.689 14.473,-19.281c9.383,-5.374 19.297,-8.061 29.742,-8.061Z" style="fill-rule:nonzero;"/><path id="path879" d="M2800.78,583.462c7.524,-5.229 14.295,-7.843 20.314,-7.843c3.718,-0 6.772,1.27 9.162,3.812c2.213,2.251 3.319,4.866 3.319,7.843c0,5.665 -2.257,12.528 -6.771,20.589c-5.046,8.932 -12.348,17.247 -21.908,24.945c-7.878,6.391 -15.402,9.586 -22.572,9.586c-2.656,0 -5.09,-0.399 -7.303,-1.198c-2.124,-0.799 -4.028,-1.997 -5.709,-3.595c-0.709,1.017 -1.151,1.67 -1.328,1.961c-1.505,2.687 -2.523,4.321 -3.054,4.902c-0.62,0.581 -1.549,0.871 -2.788,0.871c-1.594,0 -3.098,-0.762 -4.515,-2.287c-0.973,-1.017 -1.46,-2.106 -1.46,-3.268c-0,-2.034 5.089,-12.31 15.269,-30.828c14.251,-25.853 30.76,-51.561 49.526,-77.124c7.612,-10.458 12.259,-16.594 13.941,-18.41c1.859,-2.179 3.585,-3.268 5.178,-3.268c1.948,0 3.674,0.799 5.179,2.397c0.973,1.016 1.46,2.215 1.46,3.594c0,1.525 -0.841,3.45 -2.522,5.774c-0.354,0.508 -3.143,4.248 -8.365,11.22c-16.022,20.334 -27.706,37.11 -35.053,50.327Zm-26.423,43.899c1.328,1.453 2.656,2.542 3.983,3.268c1.417,0.727 2.877,1.09 4.382,1.09c7.701,-0 15.845,-5.483 24.431,-16.449c3.983,-4.938 7.126,-9.84 9.427,-14.706c2.036,-4.357 3.054,-7.589 3.054,-9.695c-0,-1.452 -0.398,-2.505 -1.195,-3.159c-0.797,-0.726 -2.036,-1.089 -3.718,-1.089c-4.072,-0 -8.984,2.287 -14.738,6.863c-5.754,4.502 -11.419,11.002 -16.995,19.498c-2.656,4.067 -4.957,7.88 -6.905,11.438c-1.151,1.961 -1.726,2.941 -1.726,2.941Z" style="fill-rule:nonzero;"/><path id="path881" d="M2889.61,570.39c7.259,-0 10.888,3.631 10.888,10.893c-0,9.659 -5.444,21.895 -16.332,36.71c-11.861,16.05 -23.324,24.074 -34.389,24.074c-5.134,0 -8.896,-1.96 -11.286,-5.882c-1.239,-1.961 -1.859,-4.321 -1.859,-7.081c0,-9.295 3.895,-19.39 11.685,-30.283c7.258,-10.094 15.8,-17.937 25.625,-23.529c5.754,-3.268 10.977,-4.902 15.668,-4.902Zm-13.809,41.176c-2.213,-1.452 -3.319,-2.578 -3.319,-3.377c-0,-0.581 1.416,-2.178 4.249,-4.793c7.966,-7.334 11.95,-13.253 11.95,-17.756c-0,-0.581 -0.222,-1.162 -0.664,-1.743c-0.709,-1.089 -1.815,-1.634 -3.32,-1.634c-2.832,0 -6.993,2.252 -12.481,6.754c-7.081,5.81 -12.481,11.801 -16.199,17.974c-4.337,7.044 -6.506,12.89 -6.506,17.538c0,1.235 0.399,2.324 1.195,3.268c1.151,1.307 2.612,1.961 4.382,1.961c4.249,0 8.807,-2.614 13.676,-7.843c2.124,-2.179 3.85,-4.43 5.178,-6.754c1.328,-2.324 1.948,-3.522 1.859,-3.595l0,0Z" style="fill-rule:nonzero;"/><path id="path883" d="M2925.59,604.813c8.674,-7.626 18.677,-15.07 30.007,-22.332c4.072,-2.614 8.409,-5.047 13.012,-7.298c2.302,-1.089 3.762,-1.634 4.382,-1.634c1.328,-0 2.655,0.799 3.983,2.396c0.797,0.872 1.195,1.671 1.195,2.397c0,1.307 -1.682,3.086 -5.045,5.338c-9.029,5.882 -13.544,10.312 -13.544,13.289c0,1.671 1.151,2.506 3.453,2.506c3.806,-0 10.356,-2.578 19.65,-7.734c1.594,-0.872 2.922,-1.308 3.984,-1.308c0.708,0 1.416,0.291 2.124,0.872c0.797,0.653 1.195,1.343 1.195,2.07c0,2.178 -3.718,5.519 -11.153,10.021c-7.79,4.793 -15.181,7.19 -22.174,7.19c-2.832,-0 -5.444,-0.617 -7.834,-1.852c-2.035,-1.017 -3.053,-2.832 -3.053,-5.447c-0,-1.815 0.929,-3.885 2.788,-6.209c-6.993,4.067 -15.225,11.039 -24.697,20.915c-5.488,6.101 -10.931,13.617 -16.331,22.549c-2.036,3.341 -4.559,5.011 -7.568,5.011c-3.275,0 -4.913,-1.271 -4.913,-3.812c-0,-2.47 2.567,-9.078 7.701,-19.826c7.613,-15.977 15.579,-28.359 23.9,-37.146c5.134,-5.447 9.427,-8.17 12.879,-8.17c1.151,-0 2.213,0.29 3.187,0.871c1.15,0.727 1.726,1.634 1.726,2.724c-0,1.089 -0.885,2.614 -2.656,4.575c-0.354,0.363 -2.699,2.796 -7.037,7.298c-3.983,4.285 -7.037,8.533 -9.161,12.746Z" style="fill-rule:nonzero;"/><path id="path885" d="M3035.8,570.39c7.259,-0 10.888,3.631 10.888,10.893c-0,9.659 -5.444,21.895 -16.332,36.71c-11.861,16.05 -23.324,24.074 -34.389,24.074c-5.134,0 -8.896,-1.96 -11.286,-5.882c-1.239,-1.961 -1.859,-4.321 -1.859,-7.081c0,-9.295 3.895,-19.39 11.685,-30.283c7.258,-10.094 15.8,-17.937 25.625,-23.529c5.754,-3.268 10.977,-4.902 15.668,-4.902Zm-13.809,41.176c-2.213,-1.452 -3.319,-2.578 -3.319,-3.377c-0,-0.581 1.416,-2.178 4.249,-4.793c7.966,-7.334 11.95,-13.253 11.95,-17.756c-0,-0.581 -0.222,-1.162 -0.664,-1.743c-0.708,-1.089 -1.815,-1.634 -3.319,-1.634c-2.833,0 -6.993,2.252 -12.481,6.754c-7.082,5.81 -12.481,11.801 -16.199,17.974c-4.337,7.044 -6.506,12.89 -6.506,17.538c-0,1.235 0.398,2.324 1.195,3.268c1.151,1.307 2.611,1.961 4.382,1.961c4.248,0 8.807,-2.614 13.676,-7.843c2.124,-2.179 3.85,-4.43 5.178,-6.754c1.328,-2.324 1.947,-3.522 1.859,-3.595l-0.001,0Z" style="fill-rule:nonzero;"/></g></g><defs><radialGradient id="_Radial1" cx="0" cy="0" r="1" gradientUnits="userSpaceOnUse" gradientTransform="matrix(-43.6054,392.147,-384.064,-42.7066,334.3,88.6598)"><stop offset="0" style="stop-color:#00aeff;stop-opacity:0.99"/><stop offset="1" style="stop-color:#00003a;stop-opacity:0.99"/></radialGradient></defs></svg>