<?xml version="1.0" encoding="UTF-8" standalone="no"?><!DOCTYPE svg PUBLIC "-//W3C//DTD SVG 1.1//EN" "http://www.w3.org/Graphics/SVG/1.1/DTD/svg11.dtd"><svg width="100%" height="100%" viewBox="0 0 615 149" version="1.1" xmlns="http://www.w3.org/2000/svg" xmlns:xlink="http://www.w3.org/1999/xlink" xml:space="preserve" xmlns:serif="http://www.serif.com/" style="fill-rule:evenodd;clip-rule:evenodd;stroke-linejoin:round;stroke-miterlimit:2;"><g id="words"><g id="flowRoot848"><path id="path795" d="M0,112.139l0,-104.625l11.791,0l0,92.888l40.95,0l-0,11.737l-52.741,-0Z" style="fill:#0369c9;fill-opacity:0.99;fill-rule:nonzero;"/><path id="path797" d="M72.302,112.139l-11.535,-0l0,-78.576l11.535,-0l0,78.576Zm-12.432,-99.83c0,-2.863 0.641,-4.938 1.923,-6.226c1.324,-1.288 2.948,-1.932 4.87,-1.932c1.794,-0 3.354,0.644 4.678,1.932c1.367,1.288 2.051,3.363 2.051,6.226c-0,2.815 -0.684,4.89 -2.051,6.226c-1.324,1.336 -2.884,2.003 -4.678,2.003c-1.922,0 -3.546,-0.667 -4.87,-2.003c-1.282,-1.336 -1.923,-3.411 -1.923,-6.226Z" style="fill:#0369c9;fill-opacity:0.99;fill-rule:nonzero;"/><path id="path799" d="M120.638,43.582l-17.752,-0l0,68.557l-11.535,-0l0,-68.557l-12.304,-0l0,-6.012l12.304,-4.436l0,-4.509c0,-9.542 1.859,-16.698 5.576,-21.469c3.759,-4.771 9.527,-7.156 17.302,-7.156c4.486,-0 9.036,0.883 13.65,2.648l-3.076,10.09c-3.973,-1.431 -7.455,-2.147 -10.446,-2.147c-3.887,0 -6.771,1.432 -8.651,4.294c-1.88,2.863 -2.82,7.395 -2.82,13.597l0,5.081l17.752,-0l-0,10.019Z" style="fill:#0369c9;fill-opacity:0.99;fill-rule:nonzero;"/><path id="path801" d="M156.925,113.57c-10.552,-0 -18.84,-3.554 -24.864,-10.663c-5.981,-7.156 -8.972,-16.984 -8.972,-29.484c0,-12.595 2.798,-22.614 8.395,-30.056c5.597,-7.49 13.158,-11.235 22.685,-11.235c8.844,-0 15.893,3.196 21.148,9.589c5.255,6.345 7.882,14.957 7.882,25.834l0,7.801l-48.19,-0c0.213,8.921 2.242,15.696 6.087,20.323c3.846,4.628 9.293,6.942 16.342,6.942c3.759,-0 7.327,-0.358 10.702,-1.074c3.375,-0.763 7.327,-2.218 11.855,-4.365l0,11.307c-3.888,1.861 -7.54,3.173 -10.958,3.936c-3.418,0.763 -7.455,1.145 -12.112,1.145Zm-2.884,-70.919c-5.511,0 -9.868,1.98 -13.073,5.94c-3.204,3.96 -5.105,9.47 -5.703,16.531l35.822,0c-0.085,-7.347 -1.602,-12.929 -4.549,-16.746c-2.948,-3.816 -7.114,-5.725 -12.497,-5.725Z" style="fill:#0369c9;fill-opacity:0.99;fill-rule:nonzero;"/><path id="path803" d="M236.341,17.604c-10.083,0 -18.008,3.769 -23.775,11.307c-5.768,7.538 -8.651,17.843 -8.651,30.915c-0,13.502 2.798,23.926 8.394,31.273c5.597,7.3 13.565,10.949 23.904,10.949c6.664,0 14.162,-1.383 22.493,-4.15l-0,11.45c-3.973,1.622 -7.797,2.719 -11.471,3.292c-3.674,0.62 -7.904,0.93 -12.689,0.93c-13.799,-0 -24.437,-4.675 -31.913,-14.026c-7.434,-9.399 -11.151,-22.686 -11.151,-39.861c0,-10.782 1.773,-20.228 5.319,-28.339c3.589,-8.11 8.78,-14.36 15.573,-18.749c6.835,-4.389 14.867,-6.584 24.095,-6.584c9.911,0 18.541,2.052 25.89,6.155l-4.743,11.163c-7.476,-3.816 -14.568,-5.725 -21.275,-5.725Z" style="fill:#0369c9;fill-opacity:0.99;fill-rule:nonzero;"/><path id="path805" d="M319.089,112.139l-0,-50.237c-0,-6.393 -1.282,-11.14 -3.845,-14.241c-2.521,-3.149 -6.494,-4.723 -11.92,-4.723c-7.134,-0 -12.368,2.218 -15.7,6.655c-3.29,4.437 -4.935,11.76 -4.935,21.97l0,40.576l-11.535,-0l0,-111.352l11.535,0l0,32.633c0,4.294 -0.213,7.967 -0.641,11.02l0.769,0c2.094,-3.816 5.063,-6.798 8.908,-8.945c3.845,-2.147 8.181,-3.22 13.009,-3.22c8.544,-0 14.974,2.29 19.289,6.87c4.315,4.532 6.472,11.808 6.472,21.826l0,51.168l-11.406,-0Z" style="fill:#0369c9;fill-opacity:0.99;fill-rule:nonzero;"/><path id="path807" d="M356.786,33.563l-0,50.595c-0,6.345 1.26,11.068 3.781,14.169c2.563,3.053 6.515,4.58 11.855,4.58c7.22,0 12.475,-2.242 15.765,-6.727c3.289,-4.484 4.934,-11.712 4.934,-21.683l0,-40.934l11.599,-0l0,78.576l-9.484,-0l-1.666,-10.377l-0.577,0c-2.093,3.769 -5.063,6.679 -8.908,8.731c-3.845,2.051 -8.309,3.077 -13.393,3.077c-8.459,-0 -14.846,-2.266 -19.161,-6.799c-4.272,-4.532 -6.408,-11.783 -6.408,-21.755l-0,-51.453l11.663,-0Z" style="fill:#0369c9;fill-opacity:0.99;fill-rule:nonzero;"/><path id="path809" d="M453.44,32.132c3.119,-0 5.874,0.286 8.267,0.858l-1.41,11.88c-2.606,-0.668 -5.148,-1.002 -7.626,-1.002c-3.717,-0 -7.177,1.145 -10.382,3.435c-3.161,2.29 -5.639,5.463 -7.433,9.518c-1.795,4.007 -2.692,8.468 -2.692,13.382l0,41.936l-11.535,-0l0,-78.576l9.485,-0l1.281,14.384l0.513,-0c2.691,-5.2 5.874,-9.136 9.548,-11.808c3.674,-2.672 7.669,-4.007 11.984,-4.007Z" style="fill:#0369c9;fill-opacity:0.99;fill-rule:nonzero;"/><path id="path811" d="M495.367,113.57c-10.125,-0 -18.008,-3.459 -23.647,-10.377c-5.639,-6.965 -8.459,-16.936 -8.459,-29.913c0,-13.167 2.841,-23.305 8.523,-30.414c5.725,-7.156 13.864,-10.734 24.416,-10.734c3.418,-0 6.793,0.405 10.125,1.216c3.375,0.764 6.152,1.765 8.331,3.006l-3.525,10.734c-5.938,-2.481 -11.001,-3.721 -15.187,-3.721c-7.092,-0 -12.326,2.505 -15.701,7.514c-3.375,4.962 -5.062,12.38 -5.062,22.256c-0,9.494 1.687,16.77 5.062,21.827c3.375,5.009 8.374,7.514 14.996,7.514c6.194,-0 12.282,-1.527 18.263,-4.58l0,11.45c-4.87,2.815 -10.915,4.222 -18.135,4.222Z" style="fill:#0369c9;fill-opacity:0.99;fill-rule:nonzero;"/><path id="path813" d="M571.706,112.139l0,-50.237c0,-6.393 -1.281,-11.14 -3.845,-14.241c-2.52,-3.149 -6.493,-4.723 -11.919,-4.723c-7.135,-0 -12.368,2.218 -15.7,6.655c-3.29,4.437 -4.935,11.76 -4.935,21.97l0,40.576l-11.535,-0l0,-111.352l11.535,0l0,32.633c0,4.294 -0.213,7.967 -0.641,11.02l0.769,0c2.094,-3.816 5.063,-6.798 8.908,-8.945c3.845,-2.147 8.181,-3.22 13.009,-3.22c8.544,-0 14.974,2.29 19.289,6.87c4.315,4.532 6.472,11.808 6.472,21.826l0,51.168l-11.407,-0Z" style="fill:#0369c9;fill-opacity:0.99;fill-rule:nonzero;"/></g><g id="flowRoot876"><path id="path816" d="M391.199,134.006c-3.712,0.603 -6.819,1.314 -9.32,2.132c-1.505,1.811 -3.156,3.985 -4.955,6.52l-1.3,1.871c-0.229,0.336 -0.58,0.819 -1.054,1.449c-0.524,0.738 -1.071,1.107 -1.644,1.107c-0.31,-0 -0.572,-0.101 -0.784,-0.302c-0.213,-0.174 -0.319,-0.369 -0.319,-0.584c-0,-0.375 0.613,-1.442 1.839,-3.199c0.671,-0.952 1.684,-2.301 3.042,-4.044c0.523,-0.671 0.94,-1.221 1.25,-1.65c-0.981,0.228 -1.88,0.489 -2.698,0.784c-0.392,0.148 -0.719,0.222 -0.981,0.222c-0.327,-0 -0.58,-0.121 -0.76,-0.363c-0.131,-0.147 -0.196,-0.322 -0.196,-0.523c-0,-0.456 0.196,-0.778 0.588,-0.966c0.638,-0.322 1.783,-0.69 3.434,-1.106c1.227,-0.322 2.199,-0.617 2.919,-0.886c0.343,-0.348 1.243,-1.375 2.698,-3.078c0.621,-0.738 2.387,-2.482 5.298,-5.232c2.092,-2.012 4.251,-3.884 6.475,-5.614c1.291,-1.02 2.28,-1.529 2.967,-1.529c0.425,-0 0.793,0.14 1.104,0.422c0.262,0.255 0.392,0.537 0.392,0.845c0,0.376 -0.229,1.033 -0.686,1.972c-0.785,1.65 -1.537,3.414 -2.257,5.292c-0.621,1.664 -1.038,2.938 -1.251,3.824c0.295,-0 0.491,-0.007 0.589,-0.021c0.474,-0.013 0.867,-0.02 1.177,-0.02c0.949,0 1.423,0.295 1.423,0.886c-0,0.255 -0.107,0.509 -0.319,0.764c-0.196,0.242 -0.425,0.389 -0.687,0.443c-0.098,0.027 -0.368,0.04 -0.809,0.04c-0.932,0 -1.627,0.047 -2.085,0.141c-0.392,0.953 -1.014,3.387 -1.864,7.304c-0.441,2.603 -0.654,4.199 -0.638,4.79c0,0.965 -0.351,1.448 -1.054,1.448c-0.556,0 -0.99,-0.234 -1.3,-0.704c-0.229,-0.322 -0.344,-0.758 -0.344,-1.308c0,-1.851 0.401,-4.346 1.202,-7.485c0.409,-1.583 0.711,-2.797 0.908,-3.642l-0,-0Zm0.686,-2.174c0.148,-0.389 0.524,-1.428 1.129,-3.119c0.147,-0.442 0.523,-1.321 1.128,-2.636c0.605,-1.354 1.087,-2.441 1.447,-3.259c-1.063,0.576 -2.142,1.341 -3.238,2.294c-3.858,3.407 -6.581,6.19 -8.167,8.35c0.605,-0.121 1.905,-0.422 3.9,-0.905c0.572,-0.134 1.839,-0.376 3.801,-0.725Z" style="fill:#fff;fill-rule:nonzero;"/><path id="path818" d="M418.448,135.495l-0.344,0.603c-1.7,2.898 -2.837,4.964 -3.409,6.198c-0.883,1.932 -1.382,3.058 -1.496,3.38c-0.343,0.899 -0.793,1.349 -1.349,1.349c-0.392,-0 -0.728,-0.148 -1.006,-0.443c-0.245,-0.255 -0.367,-0.53 -0.367,-0.825c-0,-1.154 1.806,-4.796 5.42,-10.926c-0.654,-0.403 -0.981,-0.805 -0.981,-1.208c-0,-0.308 0.163,-0.577 0.49,-0.805c0.278,-0.187 0.581,-0.281 0.908,-0.281c0.229,-0 0.531,0.047 0.907,0.14c2.666,-4.158 4.227,-6.808 4.685,-7.948c-0.409,0.188 -0.932,0.456 -1.57,0.805c-0.359,0.188 -0.678,0.282 -0.956,0.282c-0.311,-0 -0.564,-0.128 -0.761,-0.382c-0.13,-0.175 -0.196,-0.356 -0.196,-0.544c0,-0.63 0.662,-1.308 1.987,-2.032c1.063,-0.577 2.052,-1.06 2.968,-1.449c0.147,-0.322 0.237,-0.543 0.269,-0.664c0.164,-0.51 0.336,-0.852 0.515,-1.026c0.18,-0.175 0.458,-0.262 0.834,-0.262c0.769,0 1.153,0.349 1.153,1.047c1.128,-0.269 2.126,-0.47 2.992,-0.604c0.867,-0.134 1.603,-0.201 2.208,-0.201c1.586,-0 2.927,0.496 4.022,1.489c1.03,0.939 1.545,1.992 1.545,3.159c0,2.026 -1.03,4.051 -3.09,6.077c-1.766,1.717 -3.957,3.058 -6.573,4.024c-2.257,0.818 -4.513,1.228 -6.77,1.228c-0.539,-0 -1.218,-0.061 -2.035,-0.181Zm6.867,-12.275c-0.539,1.328 -1.422,3.032 -2.649,5.111c-1.504,2.522 -2.477,4.172 -2.918,4.95c0.899,0.134 1.528,0.201 1.888,0.201c1.864,0 4.039,-0.617 6.524,-1.851c2.404,-1.207 4.284,-2.703 5.641,-4.487c0.834,-1.087 1.251,-2.053 1.251,-2.898c0,-0.764 -0.319,-1.334 -0.956,-1.71c-0.622,-0.389 -1.57,-0.584 -2.845,-0.584c-0.965,0 -1.946,0.108 -2.944,0.322c-0.981,0.202 -1.978,0.517 -2.992,0.946Z" style="fill:#fff;fill-rule:nonzero;"/><path id="path820" d="M434.881,138.432c-0.491,1.047 -0.859,1.892 -1.104,2.536c-0.245,0.644 -0.368,1.093 -0.368,1.348c-0,0.335 0.196,0.503 0.589,0.503c0.588,-0 1.349,-0.456 2.281,-1.368c0.441,-0.443 1.095,-1.241 1.962,-2.395c0.343,-0.456 0.703,-0.684 1.079,-0.684c0.425,0 0.638,0.168 0.638,0.503c-0,0.577 -0.81,1.744 -2.429,3.501c-1.684,1.838 -3.245,2.757 -4.684,2.757c-0.622,0 -1.128,-0.215 -1.521,-0.644c-0.278,-0.308 -0.417,-0.684 -0.417,-1.127c0,-0.751 0.278,-1.791 0.834,-3.119c0.556,-1.328 1.382,-2.944 2.477,-4.849c2.813,-4.843 5.682,-8.834 8.609,-11.973c2.338,-2.522 4.276,-3.783 5.813,-3.783c0.49,0 0.891,0.155 1.202,0.463c0.327,0.309 0.49,0.664 0.49,1.067c0,1.878 -2.044,5.003 -6.131,9.377c-1.832,1.945 -4.023,3.89 -6.574,5.835c-0.67,0.51 -1.586,1.194 -2.746,2.052Zm1.741,-3.199c3.401,-2.388 6.442,-5.406 9.124,-9.055c1.39,-1.891 2.085,-3.146 2.085,-3.763c-0,-0.295 -0.156,-0.442 -0.466,-0.442c-0.9,-0 -2.535,1.468 -4.906,4.406c-1.962,2.415 -3.908,5.366 -5.837,8.854Z" style="fill:#fff;fill-rule:nonzero;"/><path id="path822" d="M448.861,141.793c-0.54,0.778 -1.071,1.435 -1.595,1.972c-1.03,1.046 -2.052,1.569 -3.065,1.569c-0.883,0 -1.57,-0.342 -2.061,-1.026c-0.31,-0.443 -0.466,-0.966 -0.466,-1.569c0,-1.49 0.573,-3.133 1.717,-4.93c1.276,-1.999 2.813,-3.535 4.611,-4.608c1.177,-0.698 2.314,-1.047 3.409,-1.047c0.687,0 1.259,0.175 1.717,0.523c0.393,0.309 0.589,0.658 0.589,1.047c-0,0.295 -0.139,0.704 -0.417,1.227c0.245,0.282 0.368,0.53 0.368,0.745c-0,0.281 -0.229,0.744 -0.687,1.388c-0.474,0.658 -0.948,1.529 -1.422,2.616c-0.507,1.154 -0.761,2.079 -0.761,2.777c0,0.563 0.205,1.026 0.613,1.388c0.115,0.094 0.45,0.249 1.006,0.463c0.409,0.161 0.613,0.443 0.613,0.845c0,0.255 -0.114,0.463 -0.343,0.624c-0.245,0.174 -0.532,0.262 -0.859,0.262c-0.883,-0 -1.643,-0.322 -2.281,-0.966c-0.523,-0.523 -0.784,-1.181 -0.784,-1.972c-0,-0.268 0.032,-0.711 0.098,-1.328l-0,-0Zm3.065,-6.62c-0.196,-0.296 -0.408,-0.51 -0.637,-0.644c-0.229,-0.148 -0.474,-0.222 -0.736,-0.222c-1.243,0 -2.592,0.892 -4.047,2.677c-1.602,1.972 -2.404,3.642 -2.404,5.01c0,0.335 0.074,0.59 0.221,0.765c0.164,0.174 0.401,0.261 0.711,0.261c0.785,0 1.701,-0.684 2.747,-2.052c0.589,-0.751 1.317,-1.858 2.183,-3.32c0.573,-0.953 0.99,-1.583 1.251,-1.892c0.131,-0.161 0.368,-0.355 0.711,-0.583Z" style="fill:#fff;fill-rule:nonzero;"/><path id="path824" d="M463.528,132.637c1.291,0 1.937,0.557 1.937,1.67c0,0.98 -0.466,1.966 -1.398,2.958c-0.719,0.752 -1.349,1.127 -1.888,1.127c-0.458,0 -0.687,-0.215 -0.687,-0.644c-0,-0.228 0.065,-0.409 0.196,-0.543c0.049,-0.054 0.245,-0.208 0.589,-0.463c0.294,-0.228 0.596,-0.57 0.907,-1.026c0.213,-0.309 0.319,-0.557 0.319,-0.745c0,-0.214 -0.147,-0.322 -0.441,-0.322c-0.344,0 -0.867,0.222 -1.57,0.664c-1.112,0.711 -2.224,1.825 -3.336,3.341c-1.144,1.583 -1.717,2.83 -1.717,3.742c0,0.296 0.107,0.557 0.319,0.785c0.311,0.349 0.728,0.523 1.251,0.523c1.03,0 2.248,-0.523 3.655,-1.569c1.193,-0.899 2.199,-1.798 3.016,-2.697c0.425,-0.496 0.793,-0.744 1.104,-0.744c0.18,-0 0.343,0.067 0.491,0.201c0.13,0.134 0.196,0.268 0.196,0.403c-0,0.496 -0.777,1.462 -2.33,2.897c-2.469,2.254 -4.709,3.381 -6.721,3.381c-1.21,-0 -2.133,-0.356 -2.771,-1.067c-0.458,-0.523 -0.687,-1.14 -0.687,-1.851c0,-1.395 0.703,-3.012 2.109,-4.849c1.358,-1.758 2.927,-3.173 4.71,-4.246c1.046,-0.617 1.962,-0.926 2.747,-0.926Z" style="fill:#fff;fill-rule:nonzero;"/><path id="path826" d="M470.297,141.249l-0,0.363c-0,0.295 0.09,0.55 0.27,0.764c0.408,0.497 1.079,0.745 2.011,0.745c2.044,-0 4.406,-1.288 7.088,-3.864c0.474,-0.442 0.875,-0.664 1.202,-0.664c0.18,0 0.343,0.074 0.49,0.222c0.098,0.107 0.147,0.208 0.147,0.302c0,0.523 -0.784,1.408 -2.354,2.656c-1.226,0.979 -2.534,1.777 -3.924,2.394c-1.39,0.617 -2.682,0.926 -3.876,0.926c-1.226,-0 -2.191,-0.349 -2.894,-1.047c-0.474,-0.482 -0.711,-1.14 -0.711,-1.972c0,-2.267 1.3,-4.487 3.9,-6.66c2.109,-1.771 3.949,-2.656 5.518,-2.656c0.425,-0 0.81,0.107 1.153,0.322c0.425,0.282 0.638,0.651 0.638,1.107c-0,0.711 -0.401,1.583 -1.202,2.615c-1.652,2.147 -4.137,3.629 -7.456,4.447Zm0.539,-1.569c1.145,-0.322 2.044,-0.684 2.698,-1.087c1.145,-0.724 2.052,-1.542 2.723,-2.455c0.245,-0.321 0.368,-0.61 0.368,-0.865c-0,-0.268 -0.156,-0.402 -0.466,-0.402c-0.425,-0 -1.03,0.261 -1.815,0.785c-1.406,0.925 -2.576,2.267 -3.508,4.024Z" style="fill:#fff;fill-rule:nonzero;"/><path id="path828" d="M512.924,122.214c-0.85,0.778 -1.978,2.066 -3.385,3.863c-1.422,1.825 -2.444,3.233 -3.065,4.226c3.531,-0.577 5.976,-0.865 7.333,-0.865c0.654,-0 1.153,0.053 1.496,0.161c0.393,0.107 0.589,0.355 0.589,0.744c-0,0.832 -0.573,1.248 -1.717,1.248l-0.393,-0c-0.49,-0.014 -0.85,-0.02 -1.079,-0.02c-1.618,-0 -4.308,0.436 -8.069,1.308c-2.387,3.367 -4.488,7.391 -6.303,12.073c-0.246,0.711 -0.63,1.066 -1.153,1.066c-0.458,0 -0.842,-0.207 -1.153,-0.623c-0.245,-0.309 -0.368,-0.617 -0.368,-0.926c0,-0.349 0.45,-1.529 1.349,-3.541c1.488,-3.314 3.614,-6.869 6.377,-10.665c1.75,-2.375 3.671,-4.89 5.764,-7.546c-0.556,-0.067 -0.834,-0.322 -0.834,-0.765c0,-0.657 0.777,-1.16 2.33,-1.509c2.158,-0.496 4.259,-0.878 6.303,-1.147c2.322,-0.308 4.088,-0.463 5.298,-0.463c1.913,0 2.87,0.396 2.87,1.188c-0,0.402 -0.221,0.731 -0.663,0.986c-0.179,0.107 -0.384,0.161 -0.613,0.161c-0.196,-0 -0.474,-0.02 -0.834,-0.061c-0.556,-0.067 -1.038,-0.1 -1.447,-0.1c-0.883,-0 -2.371,0.14 -4.463,0.422c-1.505,0.188 -2.895,0.45 -4.17,0.785l0,-0Z" style="fill:#fff;fill-rule:nonzero;"/><path id="path830" d="M523.961,132.134c1.341,0 2.011,0.671 2.011,2.012c0,1.785 -1.005,4.045 -3.017,6.782c-2.191,2.964 -4.308,4.446 -6.352,4.446c-0.948,0 -1.643,-0.362 -2.085,-1.086c-0.229,-0.362 -0.343,-0.798 -0.343,-1.308c-0,-1.717 0.719,-3.582 2.158,-5.594c1.341,-1.865 2.919,-3.313 4.734,-4.346c1.063,-0.604 2.027,-0.906 2.894,-0.906Zm-2.551,7.606c-0.409,-0.268 -0.613,-0.476 -0.613,-0.623c0,-0.108 0.262,-0.403 0.785,-0.886c1.471,-1.355 2.207,-2.448 2.207,-3.28c0,-0.107 -0.041,-0.214 -0.122,-0.322c-0.131,-0.201 -0.336,-0.302 -0.614,-0.302c-0.523,0 -1.291,0.416 -2.305,1.248c-1.308,1.073 -2.306,2.18 -2.992,3.32c-0.802,1.301 -1.202,2.381 -1.202,3.24c-0,0.228 0.073,0.429 0.221,0.604c0.212,0.241 0.482,0.362 0.809,0.362c0.785,-0 1.627,-0.483 2.526,-1.449c0.393,-0.403 0.712,-0.818 0.957,-1.248c0.245,-0.429 0.36,-0.65 0.343,-0.664l0,0Z" style="fill:#fff;fill-rule:nonzero;"/><path id="path832" d="M530.608,138.493c1.602,-1.409 3.45,-2.784 5.543,-4.125c0.752,-0.483 1.553,-0.933 2.403,-1.348c0.425,-0.202 0.695,-0.302 0.81,-0.302c0.245,-0 0.49,0.147 0.735,0.442c0.148,0.161 0.221,0.309 0.221,0.443c0,0.242 -0.31,0.57 -0.932,0.986c-1.668,1.087 -2.502,1.905 -2.502,2.455c0,0.308 0.213,0.463 0.638,0.463c0.703,-0 1.913,-0.476 3.63,-1.429c0.294,-0.161 0.54,-0.241 0.736,-0.241c0.131,-0 0.261,0.053 0.392,0.161c0.147,0.12 0.221,0.248 0.221,0.382c0,0.402 -0.687,1.019 -2.06,1.851c-1.439,0.886 -2.804,1.328 -4.096,1.328c-0.523,0 -1.006,-0.114 -1.447,-0.342c-0.376,-0.188 -0.564,-0.523 -0.564,-1.006c-0,-0.335 0.171,-0.718 0.515,-1.147c-1.292,0.751 -2.813,2.039 -4.562,3.864c-1.014,1.126 -2.02,2.515 -3.017,4.165c-0.376,0.617 -0.842,0.925 -1.398,0.925c-0.605,0 -0.907,-0.234 -0.907,-0.704c-0,-0.456 0.474,-1.677 1.422,-3.662c1.406,-2.951 2.878,-5.239 4.415,-6.862c0.948,-1.006 1.741,-1.509 2.379,-1.509c0.213,0 0.409,0.054 0.589,0.161c0.212,0.134 0.318,0.302 0.318,0.503c0,0.201 -0.163,0.483 -0.49,0.845c-0.065,0.067 -0.499,0.517 -1.3,1.348c-0.736,0.792 -1.3,1.577 -1.692,2.355Z" style="fill:#fff;fill-rule:nonzero;"/><path id="path834" d="M571.003,131.993c-1.292,1.033 -2.862,2.227 -4.709,3.582c-1.047,0.765 -1.979,1.382 -2.796,1.851c-0.85,0.51 -1.742,0.765 -2.674,0.765c-0.932,-0 -1.643,-0.403 -2.133,-1.207c-0.262,-0.43 -0.393,-0.892 -0.393,-1.389c0,-1.69 0.834,-3.789 2.502,-6.298c1.488,-2.24 3.54,-4.413 6.156,-6.52c2.6,-2.106 4.439,-3.159 5.519,-3.159c0.261,0 0.49,0.081 0.686,0.242c0.18,0.161 0.27,0.355 0.27,0.583c0,0.376 -0.163,0.684 -0.49,0.926c-0.262,0.188 -0.646,0.409 -1.153,0.664c-0.916,0.469 -2.052,1.247 -3.409,2.334c-2.159,1.744 -3.876,3.629 -5.151,5.654c-1.406,2.241 -2.109,3.824 -2.109,4.749c-0,0.201 0.073,0.382 0.22,0.543c0.197,0.229 0.458,0.343 0.785,0.343c0.622,-0 1.684,-0.49 3.189,-1.469c1.798,-1.141 3.254,-2.207 4.365,-3.2c3.238,-2.871 5.666,-5.198 7.285,-6.982c1.553,-1.731 2.861,-3.112 3.924,-4.145c0.899,-0.872 1.594,-1.308 2.085,-1.308c0.327,-0 0.605,0.134 0.834,0.402c0.18,0.215 0.27,0.463 0.27,0.745c-0,0.469 -0.311,1.033 -0.932,1.69c-4.432,4.776 -7.367,8.029 -8.805,9.759c-2.175,2.656 -4.064,5.413 -5.666,8.27c-1.848,3.247 -2.968,5.413 -3.36,6.5c-0.376,1.006 -0.728,1.643 -1.055,1.911c-0.327,0.269 -0.695,0.403 -1.104,0.403c-0.768,-0 -1.152,-0.302 -1.152,-0.906c-0,-0.657 0.515,-1.998 1.545,-4.024c1.21,-2.401 2.69,-4.789 4.439,-7.164c1.488,-2.012 2.494,-3.393 3.017,-4.145Z" style="fill:#fff;fill-rule:nonzero;"/><path id="path836" d="M584.223,132.134c1.341,0 2.011,0.671 2.011,2.012c-0,1.785 -1.006,4.045 -3.017,6.782c-2.191,2.964 -4.308,4.446 -6.352,4.446c-0.949,0 -1.644,-0.362 -2.085,-1.086c-0.229,-0.362 -0.343,-0.798 -0.343,-1.308c-0,-1.717 0.719,-3.582 2.158,-5.594c1.341,-1.865 2.919,-3.313 4.734,-4.346c1.062,-0.604 2.027,-0.906 2.894,-0.906Zm-2.551,7.606c-0.409,-0.268 -0.613,-0.476 -0.613,-0.623c-0,-0.108 0.261,-0.403 0.785,-0.886c1.471,-1.355 2.207,-2.448 2.207,-3.28c0,-0.107 -0.041,-0.214 -0.123,-0.322c-0.13,-0.201 -0.335,-0.302 -0.613,-0.302c-0.523,0 -1.291,0.416 -2.305,1.248c-1.308,1.073 -2.306,2.18 -2.992,3.32c-0.802,1.301 -1.202,2.381 -1.202,3.24c-0,0.228 0.073,0.429 0.221,0.604c0.212,0.241 0.482,0.362 0.809,0.362c0.785,-0 1.627,-0.483 2.526,-1.449c0.393,-0.403 0.711,-0.818 0.957,-1.248c0.245,-0.429 0.359,-0.65 0.343,-0.664l-0,0Z" style="fill:#fff;fill-rule:nonzero;"/><path id="path838" d="M593.249,142.034c-0.704,0.805 -1.325,1.449 -1.865,1.932c-0.948,0.858 -1.888,1.288 -2.82,1.288c-0.801,-0 -1.423,-0.295 -1.864,-0.886c-0.311,-0.415 -0.466,-0.912 -0.466,-1.489c-0,-1.73 0.899,-3.716 2.698,-5.956c0.834,-1.046 1.659,-1.844 2.477,-2.394c0.638,-0.443 1.161,-0.664 1.57,-0.664c0.229,-0 0.441,0.08 0.637,0.241c0.164,0.148 0.246,0.295 0.246,0.443c-0,0.255 -0.303,0.671 -0.908,1.247c-1.357,1.328 -2.387,2.549 -3.09,3.663c-0.818,1.301 -1.226,2.32 -1.226,3.058c-0,0.188 0.049,0.336 0.147,0.443c0.114,0.094 0.269,0.141 0.466,0.141c0.834,-0 1.994,-0.98 3.482,-2.938c0.769,-1.02 1.431,-2.146 1.987,-3.381c0.294,-0.67 0.679,-1.267 1.153,-1.79c0.458,-0.47 0.907,-0.705 1.349,-0.705c0.245,0 0.466,0.087 0.662,0.262c0.213,0.188 0.319,0.396 0.319,0.624c-0,0.483 -0.564,1.569 -1.692,3.259c-0.769,1.167 -1.153,2.14 -1.153,2.918c-0,0.832 0.27,1.543 0.809,2.133c0.147,0.161 0.597,0.416 1.349,0.765c0.36,0.174 0.54,0.456 0.54,0.845c-0,0.241 -0.131,0.449 -0.393,0.624c-0.245,0.174 -0.547,0.261 -0.907,0.261c-0.818,0 -1.562,-0.268 -2.232,-0.805c-0.605,-0.483 -0.989,-1.18 -1.153,-2.092c-0.033,-0.121 -0.073,-0.47 -0.123,-1.047l0.001,0Z" style="fill:#fff;fill-rule:nonzero;"/><path id="path841" d="M614.685,117.264l-6.672,21.128l-2.967,0l4.267,-21.128l5.372,-0Zm-12.803,27.768c-0,-1.006 0.343,-1.811 1.03,-2.414c0.687,-0.617 1.602,-0.926 2.747,-0.926c0.752,0 1.365,0.195 1.839,0.584c0.475,0.375 0.712,0.925 0.712,1.65c-0,0.939 -0.335,1.73 -1.006,2.374c-0.654,0.644 -1.537,0.966 -2.649,0.966c-0.866,-0 -1.529,-0.195 -1.986,-0.584c-0.458,-0.389 -0.687,-0.939 -0.687,-1.65Z" style="fill:#fff;fill-rule:nonzero;"/></g></g></svg>