<?xml version="1.0" encoding="UTF-8" standalone="no"?><!DOCTYPE svg PUBLIC "-//W3C//DTD SVG 1.1//EN" "http://www.w3.org/Graphics/SVG/1.1/DTD/svg11.dtd"><svg width="100%" height="100%" viewBox="0 0 129 128" version="1.1" xmlns="http://www.w3.org/2000/svg" xmlns:xlink="http://www.w3.org/1999/xlink" xml:space="preserve" xmlns:serif="http://www.serif.com/" style="fill-rule:evenodd;clip-rule:evenodd;stroke-linejoin:round;stroke-miterlimit:2;"><g id="logo"><ellipse id="ellipse838" cx="64.141" cy="63.893" rx="64.122" ry="63.865" style="fill:#fff;fill-opacity:0.99;"/><path id="path840" d="M64.122,0c-6.115,0 -12.198,0.871 -18.065,2.587c6.095,4.833 11.546,11.144 14.882,17.982c6.647,13.627 1.809,25.048 -4.149,35.672c-3.653,8.499 -12.503,15.51 -11.59,25.285c0.386,4.128 8.27,4.344 15.075,4.343c4.054,-0 7.516,0.237 9.359,0.312c20.493,0.843 33.093,-0.115 53.007,3.791c3.694,-8.212 5.603,-17.109 5.604,-26.107c-0,-0 -0,-0 -0,-0c-0,-35.035 -28.946,-63.865 -64.123,-63.865c0,0 0,0 -0,0Zm-33.971,9.699c-18.735,11.657 -30.151,32.164 -30.151,54.166c-0,35.035 28.946,63.865 64.122,63.865c10.727,-0 21.284,-2.681 30.701,-7.796c-4.045,-2.797 -9.398,-4.95 -12.024,-5.752c-12.406,-4.998 -27.786,-7.532 -41.235,-8.012c-8.083,-0.824 -17.633,-4.923 -20.392,-12.382c-3.474,-9.395 2.601,-20.817 9.358,-28.558c14.733,-17.877 27.453,-29.318 8.548,-49.651c-3.068,-3.3 -6.477,-4.93 -8.927,-5.88Z" style="fill:url(#_Radial1);fill-rule:nonzero;"/></g><defs><radialGradient id="_Radial1" cx="0" cy="0" r="1" gradientUnits="userSpaceOnUse" gradientTransform="matrix(-92.8533,11.9065,-11.9065,-92.8533,79.8573,26.1752)"><stop offset="0" style="stop-color:#4aa6fc;stop-opacity:1"/><stop offset="1" style="stop-color:#012a50;stop-opacity:1"/></radialGradient></defs></svg>