<?xml version="1.0" encoding="UTF-8" standalone="no"?><!DOCTYPE svg PUBLIC "-//W3C//DTD SVG 1.1//EN" "http://www.w3.org/Graphics/SVG/1.1/DTD/svg11.dtd"><svg width="100%" height="100%" viewBox="0 0 538 533" version="1.1" xmlns="http://www.w3.org/2000/svg" xmlns:xlink="http://www.w3.org/1999/xlink" xml:space="preserve" xmlns:serif="http://www.serif.com/" style="fill-rule:evenodd;clip-rule:evenodd;stroke-linejoin:round;stroke-miterlimit:2;"><ellipse id="ellipse182" cx="267.176" cy="266.104" rx="267.176" ry="266.103" style="fill:#fff;fill-opacity:0.99;"/><path id="ellipse2590" d="M270.02,0c-25.478,0.001 -50.825,3.631 -75.27,10.78c25.393,20.137 48.108,46.432 62.006,74.923c27.696,56.78 7.538,104.367 -17.285,148.633c-15.223,35.415 -52.099,64.628 -48.292,105.356c1.608,17.199 34.457,18.099 62.813,18.096c16.892,-0.001 31.317,0.985 38.996,1.301c85.386,3.51 137.886,-0.479 220.862,15.795c15.39,-34.216 23.346,-71.288 23.347,-108.78c0,-0 0,-0 0,-0.001c0,-145.98 -120.607,-266.103 -267.176,-266.103c-0,-0 -0.001,0 -0.001,0Zm-141.544,40.414c-78.066,48.568 -125.631,134.016 -125.631,225.69c-0.001,145.98 120.606,266.103 267.175,266.104c44.695,-0 88.683,-11.17 127.922,-32.484c-16.856,-11.655 -39.159,-20.625 -50.1,-23.966c-51.693,-20.824 -115.776,-31.381 -171.813,-33.382c-33.678,-3.436 -73.473,-20.515 -84.966,-51.592c-14.478,-39.148 10.836,-86.737 38.991,-118.991c61.386,-74.489 114.386,-122.16 35.615,-206.88c-12.782,-13.748 -26.988,-20.541 -37.193,-24.499Z" style="fill:url(#_Radial1);fill-rule:nonzero;"/><defs><radialGradient id="_Radial1" cx="0" cy="0" r="1" gradientUnits="userSpaceOnUse" gradientTransform="matrix(-43.6054,392.147,-384.064,-42.7066,334.3,88.6598)"><stop offset="0" style="stop-color:#00aeff;stop-opacity:0.99"/><stop offset="1" style="stop-color:#00003a;stop-opacity:0.99"/></radialGradient></defs></svg>