<?xml version="1.0" encoding="UTF-8" standalone="no"?><!DOCTYPE svg PUBLIC "-//W3C//DTD SVG 1.1//EN" "http://www.w3.org/Graphics/SVG/1.1/DTD/svg11.dtd"><svg width="100%" height="100%" viewBox="0 0 592 156" version="1.1" xmlns="http://www.w3.org/2000/svg" xmlns:xlink="http://www.w3.org/1999/xlink" xml:space="preserve" xmlns:serif="http://www.serif.com/" style="fill-rule:evenodd;clip-rule:evenodd;stroke-linejoin:round;stroke-miterlimit:2;"><g id="words"><g id="flowRoot2570-6"><path id="path844" d="M0,112.139l0,-104.625l11.791,0l0,92.888l40.95,0l-0,11.737l-52.741,-0Z" style="fill:#0369c9;fill-opacity:0.99;fill-rule:nonzero;"/><path id="path846" d="M72.302,112.139l-11.535,-0l0,-78.576l11.535,-0l0,78.576Zm-12.432,-99.83c0,-2.863 0.641,-4.938 1.923,-6.226c1.324,-1.288 2.948,-1.932 4.87,-1.932c1.794,-0 3.354,0.644 4.678,1.932c1.367,1.288 2.051,3.363 2.051,6.226c-0,2.815 -0.684,4.89 -2.051,6.226c-1.324,1.336 -2.884,2.003 -4.678,2.003c-1.922,0 -3.546,-0.667 -4.87,-2.003c-1.282,-1.336 -1.923,-3.411 -1.923,-6.226Z" style="fill:#0369c9;fill-opacity:0.99;fill-rule:nonzero;"/><path id="path848" d="M120.638,43.582l-17.752,-0l0,68.557l-11.535,-0l0,-68.557l-12.304,-0l0,-6.012l12.304,-4.436l0,-4.509c0,-9.542 1.859,-16.698 5.576,-21.469c3.759,-4.771 9.527,-7.156 17.302,-7.156c4.486,-0 9.036,0.883 13.65,2.648l-3.076,10.09c-3.973,-1.431 -7.455,-2.147 -10.446,-2.147c-3.887,0 -6.771,1.432 -8.651,4.294c-1.88,2.863 -2.82,7.395 -2.82,13.597l0,5.081l17.752,-0l-0,10.019Z" style="fill:#0369c9;fill-opacity:0.99;fill-rule:nonzero;"/><path id="path850" d="M156.925,113.57c-10.552,-0 -18.84,-3.554 -24.864,-10.663c-5.981,-7.156 -8.972,-16.984 -8.972,-29.484c0,-12.595 2.798,-22.614 8.395,-30.056c5.597,-7.49 13.158,-11.235 22.685,-11.235c8.844,-0 15.893,3.196 21.148,9.589c5.255,6.345 7.882,14.957 7.882,25.834l0,7.801l-48.19,-0c0.213,8.921 2.242,15.696 6.087,20.323c3.846,4.628 9.293,6.942 16.342,6.942c3.759,-0 7.327,-0.358 10.702,-1.074c3.375,-0.763 7.327,-2.218 11.855,-4.365l0,11.307c-3.888,1.861 -7.54,3.173 -10.958,3.936c-3.418,0.763 -7.455,1.145 -12.112,1.145Zm-2.884,-70.919c-5.511,0 -9.868,1.98 -13.073,5.94c-3.204,3.96 -5.105,9.47 -5.703,16.531l35.822,0c-0.085,-7.347 -1.602,-12.929 -4.549,-16.746c-2.948,-3.816 -7.114,-5.725 -12.497,-5.725Z" style="fill:#0369c9;fill-opacity:0.99;fill-rule:nonzero;"/><path id="path852" d="M236.341,17.604c-10.083,0 -18.008,3.769 -23.775,11.307c-5.768,7.538 -8.651,17.843 -8.651,30.915c-0,13.502 2.798,23.926 8.394,31.273c5.597,7.3 13.565,10.949 23.904,10.949c6.664,0 14.162,-1.383 22.493,-4.15l-0,11.45c-3.973,1.622 -7.797,2.719 -11.471,3.292c-3.674,0.62 -7.904,0.93 -12.689,0.93c-13.799,-0 -24.437,-4.675 -31.913,-14.026c-7.434,-9.399 -11.151,-22.686 -11.151,-39.861c0,-10.782 1.773,-20.228 5.319,-28.339c3.589,-8.11 8.78,-14.36 15.573,-18.749c6.835,-4.389 14.867,-6.584 24.095,-6.584c9.911,0 18.541,2.052 25.89,6.155l-4.743,11.163c-7.476,-3.816 -14.568,-5.725 -21.275,-5.725Z" style="fill:#0369c9;fill-opacity:0.99;fill-rule:nonzero;"/><path id="path854" d="M319.089,112.139l-0,-50.237c-0,-6.393 -1.282,-11.14 -3.845,-14.241c-2.521,-3.149 -6.494,-4.723 -11.92,-4.723c-7.134,-0 -12.368,2.218 -15.7,6.655c-3.29,4.437 -4.935,11.76 -4.935,21.97l0,40.576l-11.535,-0l0,-111.352l11.535,0l0,32.633c0,4.294 -0.213,7.967 -0.641,11.02l0.769,0c2.094,-3.816 5.063,-6.798 8.908,-8.945c3.845,-2.147 8.181,-3.22 13.009,-3.22c8.544,-0 14.974,2.29 19.289,6.87c4.315,4.532 6.472,11.808 6.472,21.826l0,51.168l-11.406,-0Z" style="fill:#0369c9;fill-opacity:0.99;fill-rule:nonzero;"/><path id="path856" d="M356.786,33.563l-0,50.595c-0,6.345 1.26,11.068 3.781,14.169c2.563,3.053 6.515,4.58 11.855,4.58c7.22,0 12.475,-2.242 15.765,-6.727c3.289,-4.484 4.934,-11.712 4.934,-21.683l0,-40.934l11.599,-0l0,78.576l-9.484,-0l-1.666,-10.377l-0.577,0c-2.093,3.769 -5.063,6.679 -8.908,8.731c-3.845,2.051 -8.309,3.077 -13.393,3.077c-8.459,-0 -14.846,-2.266 -19.161,-6.799c-4.272,-4.532 -6.408,-11.783 -6.408,-21.755l-0,-51.453l11.663,-0Z" style="fill:#0369c9;fill-opacity:0.99;fill-rule:nonzero;"/><path id="path858" d="M453.44,32.132c3.119,-0 5.874,0.286 8.267,0.858l-1.41,11.88c-2.606,-0.668 -5.148,-1.002 -7.626,-1.002c-3.717,-0 -7.177,1.145 -10.382,3.435c-3.161,2.29 -5.639,5.463 -7.433,9.518c-1.795,4.007 -2.692,8.468 -2.692,13.382l0,41.936l-11.535,-0l0,-78.576l9.485,-0l1.281,14.384l0.513,-0c2.691,-5.2 5.874,-9.136 9.548,-11.808c3.674,-2.672 7.669,-4.007 11.984,-4.007Z" style="fill:#0369c9;fill-opacity:0.99;fill-rule:nonzero;"/><path id="path860" d="M495.367,113.57c-10.125,-0 -18.008,-3.459 -23.647,-10.377c-5.639,-6.965 -8.459,-16.936 -8.459,-29.913c0,-13.167 2.841,-23.305 8.523,-30.414c5.725,-7.156 13.864,-10.734 24.416,-10.734c3.418,-0 6.793,0.405 10.125,1.216c3.375,0.764 6.152,1.765 8.331,3.006l-3.525,10.734c-5.938,-2.481 -11.001,-3.721 -15.187,-3.721c-7.092,-0 -12.326,2.505 -15.701,7.514c-3.375,4.962 -5.062,12.38 -5.062,22.256c-0,9.494 1.687,16.77 5.062,21.827c3.375,5.009 8.374,7.514 14.996,7.514c6.194,-0 12.282,-1.527 18.263,-4.58l0,11.45c-4.87,2.815 -10.915,4.222 -18.135,4.222Z" style="fill:#0369c9;fill-opacity:0.99;fill-rule:nonzero;"/><path id="path862" d="M571.706,112.139l0,-50.237c0,-6.393 -1.281,-11.14 -3.845,-14.241c-2.52,-3.149 -6.493,-4.723 -11.919,-4.723c-7.135,-0 -12.368,2.218 -15.7,6.655c-3.29,4.437 -4.935,11.76 -4.935,21.97l0,40.576l-11.535,-0l0,-111.352l11.535,0l0,32.633c0,4.294 -0.213,7.967 -0.641,11.02l0.769,0c2.094,-3.816 5.063,-6.798 8.908,-8.945c3.845,-2.147 8.181,-3.22 13.009,-3.22c8.544,-0 14.974,2.29 19.289,6.87c4.315,4.532 6.472,11.808 6.472,21.826l0,51.168l-11.407,-0Z" style="fill:#0369c9;fill-opacity:0.99;fill-rule:nonzero;"/></g><g id="flowRoot2580-2"><path id="path865" d="M412.066,143.173c0.68,-0.819 2.252,-2.789 4.716,-5.909c2.103,-2.666 5.46,-6.51 10.07,-11.529c2.677,-2.911 5.099,-5.351 7.265,-7.32c1.296,-1.186 2.444,-1.778 3.442,-1.778c0.574,-0 1.052,0.165 1.434,0.497c0.34,0.261 0.51,0.592 0.51,0.993c-0,0.593 -0.436,1.525 -1.307,2.797c-0.17,0.262 -1.041,1.525 -2.613,3.791c-2.804,4.079 -4.705,6.989 -5.704,8.732c-2.74,4.776 -4.748,8.846 -6.023,12.209c-0.743,2.005 -1.115,3.478 -1.115,4.419c0,0.209 0.021,0.427 0.064,0.653c0.106,0.68 0.159,1.081 0.159,1.203c0,0.505 -0.233,0.976 -0.701,1.412c-0.403,0.401 -0.86,0.601 -1.37,0.601c-0.595,-0 -1.084,-0.288 -1.466,-0.863c-0.319,-0.435 -0.478,-1.046 -0.478,-1.83c0,-4.932 5.014,-14.623 15.041,-29.072c-5.247,4.602 -11.058,11.19 -17.431,19.765c-1.402,1.865 -2.56,3.129 -3.473,3.791c-0.893,0.645 -1.742,0.967 -2.55,0.967c-0.807,0 -1.402,-0.287 -1.784,-0.863c-0.255,-0.383 -0.383,-0.827 -0.383,-1.333c0,-4.357 3.155,-11.216 9.465,-20.575c-2.146,1.795 -4.207,3.878 -6.182,6.248c-3.591,4.375 -6.799,8.863 -9.624,13.464c-1.338,2.214 -2.964,5.168 -4.876,8.863c-0.956,1.882 -2.06,2.824 -3.314,2.824c-0.318,-0 -0.584,-0.114 -0.796,-0.34c-0.17,-0.157 -0.255,-0.349 -0.255,-0.575c-0,-0.332 0.393,-1.238 1.179,-2.719c1.678,-3.26 2.963,-5.604 3.856,-7.033c4.567,-7.303 9.974,-14.17 16.22,-20.601c2.613,-2.684 4.418,-4.427 5.417,-5.229c1.041,-0.819 1.901,-1.229 2.581,-1.229c0.425,0 0.839,0.157 1.243,0.471c0.488,0.366 0.733,0.784 0.733,1.255c-0,0.522 -0.446,1.385 -1.339,2.588c-2.549,3.416 -4.896,7.25 -7.042,11.503c-1.848,3.835 -3.038,7.085 -3.569,9.752Z" style="fill:#fff;fill-rule:nonzero;"/><path id="path867" d="M439.981,135.669c0.361,0 0.658,0.114 0.892,0.34c0.17,0.192 0.255,0.384 0.255,0.575c0,0.314 -0.308,0.837 -0.924,1.569c-2.209,2.806 -3.782,5.116 -4.716,6.928c-0.999,1.865 -1.88,3.782 -2.645,5.752c-0.34,0.871 -0.871,1.307 -1.594,1.307c-0.424,0 -0.764,-0.139 -1.019,-0.418c-0.234,-0.227 -0.351,-0.471 -0.351,-0.732c0,-0.523 0.68,-2.266 2.04,-5.229c1.062,-2.336 2.783,-4.915 5.162,-7.739c0.765,-0.923 1.338,-1.542 1.721,-1.856c0.382,-0.331 0.775,-0.497 1.179,-0.497Zm6.054,-9.699c0.956,0 1.434,0.401 1.434,1.203c0,0.732 -0.467,1.542 -1.402,2.431c-0.892,0.854 -1.752,1.281 -2.581,1.281c-0.403,0 -0.733,-0.122 -0.988,-0.366c-0.255,-0.226 -0.382,-0.505 -0.382,-0.836c-0,-0.837 0.563,-1.726 1.689,-2.667c0.828,-0.697 1.572,-1.046 2.23,-1.046Z" style="fill:#fff;fill-rule:nonzero;"/><path id="path869" d="M453.078,136.062c2.124,-3.643 4.132,-6.815 6.023,-9.517c1.827,-2.614 3.069,-4.261 3.728,-4.941c0.722,-0.749 1.402,-1.124 2.039,-1.124c0.34,-0 0.648,0.113 0.925,0.34c0.255,0.226 0.382,0.47 0.382,0.732c0,0.401 -0.361,1.072 -1.083,2.013c-3.081,4.078 -5.906,8.218 -8.477,12.418c-2.974,4.898 -4.461,8.567 -4.461,11.007c-0,0.993 0.233,1.778 0.701,2.353c0.085,0.122 0.467,0.401 1.147,0.836c0.128,0.087 0.191,0.262 0.191,0.523c0,0.349 -0.17,0.671 -0.51,0.967c-0.318,0.279 -0.679,0.419 -1.083,0.419c-0.489,-0 -1.03,-0.244 -1.625,-0.732c-0.85,-0.697 -1.36,-1.499 -1.53,-2.405c-0.064,-0.384 -0.138,-1.099 -0.223,-2.144c-2.231,3.294 -4.355,4.941 -6.373,4.941c-1.169,-0 -2.103,-0.54 -2.804,-1.621c-0.468,-0.715 -0.701,-1.525 -0.701,-2.431c-0,-2.719 1.21,-5.456 3.632,-8.21c2.401,-2.718 4.982,-4.078 7.744,-4.078c0.765,0 1.551,0.218 2.358,0.654Zm-1.084,2.143c-0.573,-0.313 -1.072,-0.47 -1.497,-0.47c-1.785,-0 -3.474,0.897 -5.067,2.693c-2.103,2.335 -3.155,4.592 -3.155,6.771c0,0.261 0.064,0.505 0.191,0.732c0.255,0.436 0.638,0.654 1.148,0.654c0.743,-0 1.646,-0.593 2.708,-1.778c1.424,-1.569 2.741,-3.425 3.952,-5.569c0.425,-0.732 0.839,-1.464 1.242,-2.196c0,0 0.096,-0.166 0.287,-0.497l0.191,-0.34Z" style="fill:#fff;fill-rule:nonzero;"/><path id="path871" d="M470.126,136.062c2.125,-3.643 4.132,-6.815 6.023,-9.517c1.827,-2.614 3.07,-4.261 3.729,-4.941c0.722,-0.749 1.402,-1.124 2.039,-1.124c0.34,-0 0.648,0.113 0.924,0.34c0.255,0.226 0.383,0.47 0.383,0.732c-0,0.401 -0.362,1.072 -1.084,2.013c-3.08,4.078 -5.906,8.218 -8.476,12.418c-2.975,4.898 -4.462,8.567 -4.462,11.007c0,0.993 0.234,1.778 0.701,2.353c0.085,0.122 0.468,0.401 1.148,0.836c0.127,0.087 0.191,0.262 0.191,0.523c-0,0.349 -0.17,0.671 -0.51,0.967c-0.319,0.279 -0.68,0.419 -1.084,0.419c-0.488,-0 -1.03,-0.244 -1.625,-0.732c-0.85,-0.697 -1.359,-1.499 -1.529,-2.405c-0.064,-0.384 -0.138,-1.099 -0.223,-2.144c-2.231,3.294 -4.355,4.941 -6.374,4.941c-1.168,-0 -2.103,-0.54 -2.804,-1.621c-0.467,-0.715 -0.701,-1.525 -0.701,-2.431c0,-2.719 1.211,-5.456 3.633,-8.21c2.4,-2.718 4.982,-4.078 7.743,-4.078c0.765,0 1.551,0.218 2.358,0.654Zm-1.083,2.143c-0.574,-0.313 -1.073,-0.47 -1.498,-0.47c-1.784,-0 -3.473,0.897 -5.066,2.693c-2.104,2.335 -3.155,4.592 -3.155,6.771c-0,0.261 0.063,0.505 0.191,0.732c0.255,0.436 0.637,0.654 1.147,0.654c0.744,-0 1.647,-0.593 2.709,-1.778c1.423,-1.569 2.74,-3.425 3.951,-5.569c0.425,-0.732 0.839,-1.464 1.243,-2.196c-0,0 0.096,-0.166 0.287,-0.497l0.191,-0.34Z" style="fill:#fff;fill-rule:nonzero;"/><path id="path873" d="M479.559,142.65c-0.637,1.359 -1.115,2.457 -1.434,3.294c-0.319,0.837 -0.478,1.42 -0.478,1.752c-0,0.435 0.255,0.653 0.765,0.653c0.764,0 1.752,-0.592 2.963,-1.778c0.574,-0.575 1.424,-1.612 2.55,-3.111c0.446,-0.592 0.913,-0.889 1.402,-0.889c0.552,0 0.828,0.218 0.828,0.654c0,0.749 -1.051,2.266 -3.155,4.549c-2.188,2.388 -4.217,3.582 -6.086,3.582c-0.807,-0 -1.466,-0.279 -1.976,-0.837c-0.361,-0.401 -0.541,-0.889 -0.541,-1.464c-0,-0.976 0.361,-2.327 1.083,-4.052c0.722,-1.726 1.795,-3.826 3.218,-6.301c3.654,-6.292 7.383,-11.477 11.186,-15.555c3.038,-3.277 5.555,-4.915 7.552,-4.915c0.637,-0 1.158,0.2 1.561,0.601c0.425,0.401 0.638,0.863 0.638,1.385c-0,2.441 -2.656,6.502 -7.967,12.183c-2.379,2.528 -5.226,5.055 -8.54,7.582c-0.871,0.663 -2.061,1.551 -3.569,2.667Zm2.262,-4.157c4.419,-3.102 8.371,-7.024 11.855,-11.765c1.805,-2.457 2.708,-4.087 2.708,-4.889c0,-0.383 -0.202,-0.575 -0.605,-0.575c-1.169,0 -3.293,1.909 -6.373,5.726c-2.55,3.137 -5.078,6.971 -7.585,11.503Z" style="fill:#fff;fill-rule:nonzero;"/><path id="path875" d="M490.84,146.31l-0,0.471c-0,0.383 0.116,0.714 0.35,0.993c0.531,0.645 1.402,0.967 2.613,0.967c2.656,0 5.725,-1.673 9.21,-5.019c0.616,-0.575 1.136,-0.863 1.561,-0.863c0.234,0 0.446,0.096 0.637,0.288c0.128,0.139 0.192,0.27 0.192,0.392c-0,0.679 -1.02,1.83 -3.06,3.451c-1.593,1.272 -3.293,2.309 -5.098,3.111c-1.806,0.802 -3.484,1.202 -5.035,1.202c-1.593,0 -2.847,-0.453 -3.76,-1.359c-0.616,-0.627 -0.925,-1.481 -0.925,-2.562c0,-2.946 1.689,-5.83 5.067,-8.654c2.741,-2.3 5.131,-3.451 7.17,-3.451c0.553,0 1.052,0.14 1.498,0.419c0.552,0.366 0.828,0.845 0.828,1.438c0,0.923 -0.52,2.056 -1.561,3.398c-2.146,2.789 -5.375,4.715 -9.687,5.778Zm0.701,-2.039c1.487,-0.419 2.655,-0.889 3.505,-1.412c1.487,-0.941 2.666,-2.004 3.537,-3.19c0.319,-0.418 0.478,-0.793 0.478,-1.124c0,-0.348 -0.202,-0.523 -0.605,-0.523c-0.553,0 -1.339,0.34 -2.358,1.02c-1.827,1.203 -3.346,2.946 -4.557,5.229Z" style="fill:#fff;fill-rule:nonzero;"/><path id="path877" d="M520.89,133.97c1.317,0 2.305,0.192 2.963,0.575c0.659,0.384 0.988,0.968 0.988,1.752c-0,1.028 -0.467,2.022 -1.402,2.98c-0.892,0.907 -2.231,1.639 -4.015,2.196c-0.978,0.297 -1.795,0.445 -2.454,0.445c-0.892,-0 -1.338,-0.323 -1.338,-0.967c-0,-0.436 0.255,-0.767 0.764,-0.994c0.128,-0.052 0.85,-0.2 2.167,-0.444c0.786,-0.14 1.509,-0.445 2.167,-0.915c0.574,-0.401 0.861,-0.837 0.861,-1.308c-0,-0.366 -0.128,-0.636 -0.383,-0.81c-0.255,-0.174 -0.637,-0.262 -1.147,-0.262c-1.232,0 -2.592,0.41 -4.079,1.229c-1.721,0.924 -2.581,2.022 -2.581,3.294c-0,0.907 0.563,2.04 1.689,3.399c1.253,1.482 1.88,2.736 1.88,3.765c-0,1.534 -0.829,2.736 -2.486,3.608c-1.019,0.54 -2.177,0.81 -3.473,0.81c-2.039,0 -3.59,-0.601 -4.653,-1.804c-0.743,-0.854 -1.115,-1.865 -1.115,-3.033c0,-1.359 0.425,-2.501 1.275,-3.424c0.552,-0.61 1.126,-0.915 1.721,-0.915c0.531,-0 0.796,0.174 0.796,0.522c0,0.14 -0.095,0.349 -0.287,0.628c-0.488,0.749 -0.732,1.63 -0.732,2.64c-0,0.854 0.371,1.578 1.115,2.17c0.658,0.523 1.413,0.785 2.262,0.785c0.829,-0 1.477,-0.227 1.944,-0.68c0.383,-0.383 0.574,-0.871 0.574,-1.464c-0,-0.732 -0.51,-1.682 -1.53,-2.85c-1.402,-1.603 -2.103,-3.059 -2.103,-4.366c0,-1.743 1.158,-3.285 3.473,-4.627c2.252,-1.29 4.632,-1.935 7.139,-1.935Z" style="fill:#fff;fill-rule:nonzero;"/><path id="path879" d="M532.011,137.604c1.806,-1.255 3.431,-1.882 4.875,-1.882c0.893,-0 1.626,0.305 2.199,0.915c0.531,0.54 0.797,1.168 0.797,1.882c-0,1.36 -0.542,3.007 -1.625,4.941c-1.211,2.144 -2.964,4.14 -5.258,5.987c-1.891,1.534 -3.697,2.301 -5.418,2.301c-0.637,-0 -1.221,-0.096 -1.752,-0.288c-0.51,-0.191 -0.967,-0.479 -1.37,-0.862c-0.17,0.244 -0.277,0.4 -0.319,0.47c-0.361,0.645 -0.606,1.037 -0.733,1.177c-0.149,0.139 -0.372,0.209 -0.669,0.209c-0.383,-0 -0.744,-0.183 -1.084,-0.549c-0.233,-0.244 -0.35,-0.506 -0.35,-0.785c-0,-0.488 1.221,-2.954 3.664,-7.398c3.421,-6.205 7.383,-12.375 11.887,-18.51c1.827,-2.51 2.942,-3.983 3.346,-4.418c0.446,-0.523 0.86,-0.785 1.242,-0.785c0.468,0 0.882,0.192 1.243,0.575c0.234,0.244 0.351,0.532 0.351,0.863c-0,0.366 -0.202,0.828 -0.606,1.386c-0.085,0.122 -0.754,1.019 -2.007,2.693c-3.846,4.88 -6.65,8.906 -8.413,12.078Zm-6.341,10.536c0.318,0.349 0.637,0.61 0.956,0.784c0.339,0.175 0.69,0.262 1.051,0.262c1.848,-0 3.803,-1.316 5.864,-3.948c0.955,-1.185 1.71,-2.362 2.262,-3.529c0.489,-1.046 0.733,-1.822 0.733,-2.327c-0,-0.349 -0.096,-0.601 -0.287,-0.758c-0.191,-0.175 -0.488,-0.262 -0.892,-0.262c-0.977,0 -2.156,0.549 -3.537,1.647c-1.381,1.081 -2.741,2.641 -4.079,4.68c-0.637,0.976 -1.19,1.891 -1.657,2.745c-0.276,0.471 -0.414,0.706 -0.414,0.706Z" style="fill:#fff;fill-rule:nonzero;"/><path id="path881" d="M553.33,134.467c1.742,-0 2.613,0.871 2.613,2.614c-0,2.318 -1.307,5.255 -3.92,8.811c-2.847,3.852 -5.598,5.777 -8.253,5.777c-1.233,0 -2.135,-0.47 -2.709,-1.411c-0.297,-0.471 -0.446,-1.037 -0.446,-1.7c-0,-2.231 0.935,-4.653 2.804,-7.268c1.742,-2.422 3.792,-4.305 6.15,-5.647c1.381,-0.784 2.635,-1.176 3.761,-1.176Zm-3.315,9.882c-0.531,-0.348 -0.796,-0.619 -0.796,-0.81c-0,-0.14 0.34,-0.523 1.019,-1.151c1.912,-1.76 2.868,-3.18 2.868,-4.261c0,-0.139 -0.053,-0.279 -0.159,-0.418c-0.17,-0.262 -0.435,-0.392 -0.797,-0.392c-0.679,-0 -1.678,0.54 -2.995,1.62c-1.7,1.395 -2.995,2.833 -3.888,4.314c-1.041,1.691 -1.561,3.094 -1.561,4.209c-0,0.297 0.095,0.558 0.287,0.785c0.276,0.313 0.626,0.47 1.051,0.47c1.02,0 2.114,-0.627 3.282,-1.882c0.51,-0.523 0.925,-1.063 1.243,-1.621c0.319,-0.558 0.468,-0.845 0.446,-0.863l0,0Z" style="fill:#fff;fill-rule:nonzero;"/><path id="path883" d="M561.965,142.728c2.082,-1.83 4.483,-3.616 7.202,-5.359c0.977,-0.628 2.018,-1.212 3.123,-1.752c0.552,-0.261 0.903,-0.392 1.052,-0.392c0.318,0 0.637,0.192 0.956,0.575c0.191,0.209 0.286,0.401 0.286,0.575c0,0.314 -0.403,0.741 -1.211,1.281c-2.166,1.412 -3.25,2.475 -3.25,3.19c0,0.401 0.276,0.601 0.829,0.601c0.913,0 2.485,-0.618 4.716,-1.856c0.382,-0.209 0.701,-0.314 0.956,-0.314c0.17,0 0.34,0.07 0.51,0.209c0.191,0.157 0.286,0.323 0.286,0.497c0,0.523 -0.892,1.325 -2.676,2.405c-1.87,1.151 -3.644,1.726 -5.322,1.726c-0.68,-0 -1.306,-0.148 -1.88,-0.445c-0.489,-0.244 -0.733,-0.679 -0.733,-1.307c-0,-0.435 0.223,-0.932 0.669,-1.49c-1.678,0.976 -3.654,2.649 -5.927,5.02c-1.317,1.464 -2.624,3.268 -3.92,5.411c-0.488,0.802 -1.094,1.203 -1.816,1.203c-0.786,0 -1.179,-0.305 -1.179,-0.915c0,-0.593 0.616,-2.179 1.848,-4.758c1.827,-3.835 3.739,-6.806 5.736,-8.915c1.232,-1.307 2.263,-1.961 3.091,-1.961c0.276,0 0.531,0.07 0.765,0.209c0.276,0.174 0.414,0.392 0.414,0.654c0,0.261 -0.212,0.627 -0.637,1.098c-0.085,0.087 -0.648,0.671 -1.689,1.751c-0.956,1.029 -1.689,2.048 -2.199,3.059Z" style="fill:#fff;fill-rule:nonzero;"/><path id="path885" d="M588.414,134.467c1.742,-0 2.613,0.871 2.613,2.614c0,2.318 -1.306,5.255 -3.919,8.811c-2.847,3.852 -5.598,5.777 -8.254,5.777c-1.232,0 -2.135,-0.47 -2.708,-1.411c-0.298,-0.471 -0.446,-1.037 -0.446,-1.7c-0,-2.231 0.934,-4.653 2.804,-7.268c1.742,-2.422 3.792,-4.305 6.15,-5.647c1.381,-0.784 2.634,-1.176 3.76,-1.176Zm-3.314,9.882c-0.531,-0.348 -0.796,-0.619 -0.796,-0.81c-0,-0.14 0.34,-0.523 1.019,-1.151c1.912,-1.76 2.868,-3.18 2.868,-4.261c0,-0.139 -0.053,-0.279 -0.159,-0.418c-0.17,-0.262 -0.435,-0.392 -0.797,-0.392c-0.679,-0 -1.678,0.54 -2.995,1.62c-1.7,1.395 -2.995,2.833 -3.888,4.314c-1.041,1.691 -1.561,3.094 -1.561,4.209c-0,0.297 0.095,0.558 0.287,0.785c0.276,0.313 0.626,0.47 1.051,0.47c1.02,0 2.114,-0.627 3.282,-1.882c0.51,-0.523 0.925,-1.063 1.243,-1.621c0.319,-0.558 0.468,-0.845 0.446,-0.863l0,0Z" style="fill:#fff;fill-rule:nonzero;"/></g></g></svg>