<?xml version="1.0" encoding="UTF-8" standalone="no"?><!DOCTYPE svg PUBLIC "-//W3C//DTD SVG 1.1//EN" "http://www.w3.org/Graphics/SVG/1.1/DTD/svg11.dtd"><svg width="100%" height="100%" viewBox="0 0 2562 618" version="1.1" xmlns="http://www.w3.org/2000/svg" xmlns:xlink="http://www.w3.org/1999/xlink" xml:space="preserve" xmlns:serif="http://www.serif.com/" style="fill-rule:evenodd;clip-rule:evenodd;stroke-linejoin:round;stroke-miterlimit:2;"><g id="flowRoot848"><path id="path795" d="M0,467.245l0,-435.936l49.131,-0l-0,387.034l170.621,0l0,48.902l-219.752,-0Z" style="fill:#004b8f;fill-opacity:0.99;fill-rule:nonzero;"/><path id="path797" d="M301.26,467.245l-48.063,-0l0,-327.4l48.063,0l-0,327.4Zm-51.801,-415.958c0,-11.928 2.67,-20.575 8.011,-25.942c5.518,-5.367 12.282,-8.051 20.293,-8.051c7.476,0 13.973,2.684 19.492,8.051c5.696,5.367 8.544,14.014 8.544,25.942c0,11.728 -2.848,20.375 -8.544,25.941c-5.519,5.566 -12.016,8.349 -19.492,8.349c-8.011,0 -14.775,-2.783 -20.293,-8.349c-5.341,-5.566 -8.011,-14.213 -8.011,-25.941Z" style="fill:#004b8f;fill-opacity:0.99;fill-rule:nonzero;"/><path id="path799" d="M502.656,181.59l-73.962,0l-0,285.655l-48.063,-0l0,-285.655l-51.266,0l-0,-25.047l51.266,-18.487l0,-18.785c0,-39.757 7.744,-69.575 23.23,-89.453c15.665,-19.879 39.696,-29.818 72.094,-29.818c18.691,0 37.649,3.678 56.874,11.033l-12.817,42.043c-16.555,-5.964 -31.062,-8.946 -43.523,-8.946c-16.199,0 -28.214,5.964 -36.047,17.891c-7.832,11.927 -11.748,30.812 -11.748,56.654l-0,21.17l73.962,0l0,41.745Z" style="fill:#004b8f;fill-opacity:0.99;fill-rule:nonzero;"/><path id="path801" d="M653.854,473.208c-43.968,0 -78.502,-14.809 -103.601,-44.428c-24.921,-29.818 -37.382,-70.768 -37.382,-122.85c0,-52.479 11.66,-94.224 34.979,-125.234c23.319,-31.21 54.827,-46.814 94.523,-46.814c36.848,-0 66.219,13.318 88.114,39.956c21.896,26.438 32.843,62.319 32.843,107.642l0,32.501l-200.794,0c0.889,37.173 9.345,65.401 25.366,84.683c16.021,19.282 38.717,28.923 68.089,28.923c15.664,-0 30.528,-1.491 44.591,-4.473c14.063,-3.18 30.528,-9.243 49.397,-18.189l0,47.112c-16.198,7.753 -31.418,13.22 -45.659,16.4c-14.241,3.181 -31.063,4.771 -50.466,4.771Zm-12.015,-295.494c-22.963,-0 -41.12,8.25 -54.471,24.749c-13.351,16.499 -21.272,39.459 -23.764,68.879l149.261,-0c-0.357,-30.613 -6.676,-53.871 -18.958,-69.774c-12.283,-15.903 -29.639,-23.854 -52.068,-23.854Z" style="fill:#004b8f;fill-opacity:0.99;fill-rule:nonzero;"/><path id="path803" d="M984.753,73.352c-42.01,-0 -75.031,15.704 -99.062,47.112c-24.031,31.408 -36.047,74.345 -36.047,128.813c-0,56.256 11.66,99.69 34.979,130.303c23.319,30.414 56.518,45.622 99.596,45.622c27.769,-0 59.01,-5.765 93.722,-17.295l-0,47.709c-16.555,6.758 -32.487,11.33 -47.796,13.716c-15.309,2.584 -32.932,3.876 -52.869,3.876c-57.497,0 -101.821,-19.481 -132.972,-58.443c-30.974,-39.16 -46.461,-94.522 -46.461,-166.085c0,-44.925 7.388,-84.285 22.162,-118.078c14.953,-33.794 36.581,-59.835 64.885,-78.123c28.481,-18.288 61.947,-27.432 100.397,-27.432c41.298,-0 77.256,8.548 107.873,25.643l-19.759,46.516c-31.151,-15.903 -60.701,-23.854 -88.648,-23.854Z" style="fill:#004b8f;fill-opacity:0.99;fill-rule:nonzero;"/><path id="path805" d="M1329.54,467.245l-0,-209.321c-0,-26.637 -5.34,-46.417 -16.021,-59.338c-10.502,-13.119 -27.057,-19.679 -49.665,-19.679c-29.727,-0 -51.533,9.243 -65.418,27.73c-13.707,18.487 -20.56,49.001 -20.56,91.541l0,169.067l-48.062,-0l-0,-463.965l48.062,-0l0,135.969c0,17.891 -0.89,33.197 -2.67,45.919l3.204,0c8.723,-15.902 21.094,-28.326 37.115,-37.272c16.021,-8.945 34.089,-13.418 54.204,-13.418c35.602,0 62.392,9.542 80.371,28.625c17.979,18.885 26.968,49.2 26.968,90.944l0,213.198l-47.528,-0Z" style="fill:#004b8f;fill-opacity:0.99;fill-rule:nonzero;"/><path id="path807" d="M1486.61,139.845l0,210.812c0,26.439 5.251,46.118 15.754,59.039c10.681,12.723 27.146,19.084 49.398,19.084c30.083,-0 51.978,-9.343 65.685,-28.029c13.707,-18.686 20.56,-48.802 20.56,-90.348l-0,-170.558l48.329,0l0,327.4l-39.518,-0l-6.942,-43.236l-2.403,-0c-8.722,15.704 -21.094,27.83 -37.115,36.378c-16.021,8.547 -34.623,12.821 -55.806,12.821c-35.246,0 -61.858,-9.442 -79.837,-28.327c-17.801,-18.884 -26.701,-49.1 -26.701,-90.646l-0,-214.39l48.596,0Z" style="fill:#004b8f;fill-opacity:0.99;fill-rule:nonzero;"/><path id="path809" d="M1889.33,133.882c12.995,-0 24.476,1.193 34.445,3.578l-5.874,49.497c-10.859,-2.782 -21.45,-4.174 -31.775,-4.174c-15.487,0 -29.906,4.771 -43.256,14.313c-13.173,9.541 -23.497,22.76 -30.974,39.657c-7.476,16.698 -11.214,35.285 -11.214,55.759l-0,174.733l-48.063,-0l0,-327.4l39.518,0l5.34,59.934l2.137,0c11.214,-21.667 24.476,-38.067 39.785,-49.199c15.308,-11.132 31.952,-16.698 49.931,-16.698Z" style="fill:#004b8f;fill-opacity:0.99;fill-rule:nonzero;"/><path id="path811" d="M2064.03,473.208c-42.189,0 -75.031,-14.412 -98.529,-43.236c-23.497,-29.022 -35.245,-70.568 -35.245,-124.638c-0,-54.865 11.837,-97.107 35.512,-126.725c23.854,-29.818 57.765,-44.727 101.733,-44.727c14.241,-0 28.303,1.689 42.188,5.069c14.063,3.18 25.633,7.355 34.712,12.523l-14.686,44.727c-24.743,-10.337 -45.837,-15.505 -63.282,-15.505c-29.55,-0 -51.356,10.436 -65.419,31.308c-14.062,20.674 -21.094,51.585 -21.094,92.734c0,39.558 7.032,69.873 21.094,90.944c14.063,20.872 34.89,31.309 62.482,31.309c25.811,-0 51.177,-6.362 76.099,-19.084l-0,47.709c-20.294,11.728 -45.482,17.592 -75.565,17.592Z" style="fill:#004b8f;fill-opacity:0.99;fill-rule:nonzero;"/><path id="path813" d="M2382.11,467.245l0,-209.321c0,-26.637 -5.34,-46.417 -16.021,-59.338c-10.502,-13.119 -27.057,-19.679 -49.664,-19.679c-29.728,-0 -51.534,9.243 -65.419,27.73c-13.706,18.487 -20.56,49.001 -20.56,91.541l0,169.067l-48.062,-0l-0,-463.965l48.062,-0l0,135.969c0,17.891 -0.89,33.197 -2.67,45.919l3.204,0c8.723,-15.902 21.094,-28.326 37.115,-37.272c16.021,-8.945 34.089,-13.418 54.204,-13.418c35.602,0 62.392,9.542 80.371,28.625c17.979,18.885 26.969,49.2 26.969,90.944l-0,213.198l-47.529,-0Z" style="fill:#004b8f;fill-opacity:0.99;fill-rule:nonzero;"/></g><g id="flowRoot876"><path id="path816" d="M1630,558.356c-15.466,2.516 -28.41,5.478 -38.834,8.888c-6.268,7.545 -13.149,16.6 -20.643,27.164l-5.417,7.798c-0.953,1.397 -2.418,3.409 -4.394,6.036c-2.18,3.075 -4.462,4.612 -6.847,4.612c-1.294,-0 -2.384,-0.42 -3.27,-1.258c-0.886,-0.727 -1.329,-1.537 -1.329,-2.431c0,-1.565 2.555,-6.009 7.665,-13.331c2.793,-3.969 7.017,-9.586 12.672,-16.853c2.18,-2.794 3.917,-5.086 5.212,-6.875c-4.088,0.951 -7.835,2.041 -11.242,3.27c-1.635,0.615 -2.997,0.922 -4.087,0.922c-1.363,0 -2.419,-0.503 -3.168,-1.509c-0.545,-0.614 -0.818,-1.341 -0.818,-2.18c0,-1.9 0.818,-3.241 2.453,-4.024c2.657,-1.341 7.426,-2.879 14.307,-4.611c5.11,-1.342 9.163,-2.571 12.161,-3.689c1.431,-1.454 5.178,-5.73 11.241,-12.828c2.589,-3.074 9.947,-10.341 22.074,-21.799c8.721,-8.384 17.714,-16.182 26.98,-23.392c5.382,-4.248 9.504,-6.372 12.365,-6.372c1.771,0 3.304,0.587 4.599,1.761c1.09,1.062 1.635,2.235 1.635,3.521c-0,1.565 -0.954,4.304 -2.862,8.217c-3.27,6.875 -6.404,14.225 -9.401,22.05c-2.589,6.931 -4.327,12.241 -5.212,15.93c1.226,-0 2.044,-0.028 2.452,-0.084c1.976,-0.056 3.611,-0.083 4.906,-0.083c3.951,-0 5.927,1.229 5.927,3.689c-0,1.062 -0.443,2.124 -1.329,3.186c-0.817,1.006 -1.771,1.621 -2.861,1.844c-0.409,0.112 -1.533,0.168 -3.372,0.168c-3.884,-0 -6.779,0.196 -8.687,0.587c-1.635,3.968 -4.224,14.113 -7.767,30.435c-1.839,10.843 -2.725,17.495 -2.657,19.954c0,4.024 -1.465,6.037 -4.394,6.037c-2.317,-0 -4.122,-0.979 -5.416,-2.935c-0.954,-1.341 -1.431,-3.158 -1.431,-5.45c-0,-7.713 1.669,-18.109 5.007,-31.189c1.704,-6.595 2.964,-11.654 3.782,-15.175l-0,-0.001Zm2.861,-9.055c0.613,-1.621 2.18,-5.952 4.701,-12.995c0.613,-1.845 2.18,-5.506 4.701,-10.983c2.521,-5.646 4.53,-10.173 6.029,-13.583c-4.428,2.404 -8.925,5.59 -13.489,9.558c-16.079,14.197 -27.422,25.796 -34.031,34.795c2.521,-0.503 7.937,-1.761 16.249,-3.773c2.384,-0.559 7.664,-1.565 15.84,-3.019Z" style="fill-rule:nonzero;"/><path id="path818" d="M1743.53,564.561l-1.431,2.515c-7.085,12.073 -11.82,20.681 -14.205,25.823c-3.679,8.049 -5.756,12.744 -6.233,14.086c-1.431,3.745 -3.305,5.617 -5.621,5.617c-1.635,0 -3.032,-0.615 -4.19,-1.844c-1.022,-1.062 -1.533,-2.208 -1.533,-3.438c0,-4.807 7.528,-19.982 22.585,-45.526c-2.725,-1.677 -4.088,-3.354 -4.088,-5.031c0,-1.285 0.681,-2.403 2.044,-3.353c1.158,-0.783 2.419,-1.174 3.781,-1.174c0.954,-0 2.214,0.195 3.781,0.587c11.105,-17.328 17.612,-28.367 19.519,-33.118c-1.703,0.783 -3.883,1.901 -6.54,3.354c-1.499,0.782 -2.827,1.174 -3.986,1.174c-1.294,-0 -2.35,-0.531 -3.168,-1.593c-0.545,-0.727 -0.817,-1.482 -0.817,-2.264c-0,-2.627 2.759,-5.45 8.278,-8.468c4.428,-2.404 8.55,-4.416 12.365,-6.037c0.613,-1.341 0.988,-2.264 1.124,-2.767c0.682,-2.124 1.397,-3.549 2.146,-4.276c0.75,-0.726 1.908,-1.089 3.475,-1.089c3.202,-0 4.803,1.453 4.803,4.359c4.701,-1.118 8.857,-1.956 12.468,-2.515c3.611,-0.559 6.676,-0.838 9.197,-0.838c6.609,-0 12.195,2.068 16.76,6.204c4.292,3.913 6.438,8.3 6.438,13.163c0,8.44 -4.292,16.88 -12.876,25.32c-7.358,7.155 -16.488,12.744 -27.388,16.769c-9.402,3.409 -18.804,5.114 -28.206,5.114c-2.248,0 -5.075,-0.251 -8.482,-0.754Zm28.614,-51.144c-2.248,5.534 -5.927,12.632 -11.037,21.296c-6.267,10.508 -10.321,17.383 -12.161,20.625c3.748,0.559 6.37,0.838 7.869,0.838c7.767,0 16.828,-2.571 27.184,-7.713c10.015,-5.031 17.85,-11.263 23.505,-18.697c3.474,-4.527 5.211,-8.552 5.211,-12.073c0,-3.186 -1.328,-5.562 -3.985,-7.127c-2.589,-1.621 -6.541,-2.431 -11.855,-2.431c-4.019,-0 -8.107,0.447 -12.263,1.341c-4.088,0.839 -8.244,2.152 -12.468,3.941Z" style="fill-rule:nonzero;"/><path id="path820" d="M1812,576.802c-2.044,4.359 -3.577,7.881 -4.599,10.564c-1.022,2.683 -1.533,4.555 -1.533,5.617c0,1.397 0.818,2.096 2.453,2.096c2.453,0 5.621,-1.9 9.504,-5.701c1.84,-1.845 4.565,-5.17 8.176,-9.977c1.43,-1.901 2.929,-2.851 4.496,-2.851c1.772,0 2.657,0.699 2.657,2.096c0,2.404 -3.372,7.266 -10.117,14.589c-7.017,7.657 -13.524,11.486 -19.519,11.486c-2.589,-0 -4.701,-0.894 -6.336,-2.683c-1.158,-1.286 -1.737,-2.851 -1.737,-4.695c-0,-3.13 1.158,-7.462 3.474,-12.996c2.317,-5.533 5.757,-12.269 10.322,-20.206c11.718,-20.178 23.675,-36.806 35.87,-49.886c9.742,-10.508 17.816,-15.762 24.22,-15.762c2.044,0 3.713,0.643 5.007,1.928c1.363,1.286 2.044,2.767 2.044,4.444c0,7.825 -8.516,20.849 -25.548,39.07c-7.631,8.105 -16.76,16.21 -27.388,24.315c-2.793,2.124 -6.609,4.974 -11.446,8.552Zm7.256,-13.331c14.171,-9.95 26.843,-22.526 38.016,-37.729c5.791,-7.881 8.687,-13.108 8.687,-15.679c-0,-1.229 -0.648,-1.844 -1.942,-1.844c-3.747,-0 -10.56,6.12 -20.439,18.361c-8.175,10.061 -16.283,22.358 -24.322,36.891Z" style="fill-rule:nonzero;"/><path id="path822" d="M1870.25,590.803c-2.249,3.242 -4.463,5.981 -6.643,8.217c-4.292,4.359 -8.55,6.539 -12.774,6.539c-3.679,0 -6.541,-1.425 -8.584,-4.276c-1.295,-1.844 -1.942,-4.024 -1.942,-6.539c-0,-6.205 2.384,-13.052 7.153,-20.542c5.315,-8.328 11.719,-14.728 19.213,-19.199c4.905,-2.907 9.64,-4.36 14.205,-4.36c2.861,-0 5.246,0.726 7.153,2.18c1.636,1.285 2.453,2.739 2.453,4.36c0,1.229 -0.579,2.934 -1.737,5.114c1.022,1.174 1.533,2.208 1.533,3.102c-0,1.174 -0.954,3.102 -2.862,5.785c-1.975,2.739 -3.951,6.372 -5.927,10.9c-2.112,4.807 -3.168,8.663 -3.168,11.57c0,2.347 0.852,4.276 2.555,5.785c0.477,0.391 1.873,1.034 4.19,1.928c1.703,0.671 2.555,1.845 2.555,3.522c-0,1.062 -0.477,1.928 -1.431,2.599c-1.022,0.726 -2.214,1.09 -3.577,1.09c-3.679,-0 -6.847,-1.342 -9.504,-4.025c-2.18,-2.18 -3.27,-4.918 -3.27,-8.216c-0,-1.118 0.136,-2.963 0.409,-5.534l-0,0Zm12.774,-27.584c-0.818,-1.23 -1.703,-2.124 -2.657,-2.683c-0.954,-0.615 -1.976,-0.922 -3.066,-0.922c-5.178,-0 -10.798,3.717 -16.862,11.151c-6.677,8.216 -10.015,15.175 -10.015,20.877c0,1.397 0.307,2.459 0.92,3.186c0.681,0.726 1.669,1.09 2.963,1.09c3.271,-0 7.086,-2.851 11.446,-8.552c2.453,-3.13 5.485,-7.742 9.095,-13.834c2.385,-3.969 4.122,-6.596 5.212,-7.881c0.545,-0.671 1.533,-1.482 2.964,-2.432Z" style="fill-rule:nonzero;"/><path id="path824" d="M1931.37,552.655c5.382,0 8.073,2.32 8.073,6.959c0,4.08 -1.942,8.189 -5.825,12.325c-2.998,3.13 -5.621,4.695 -7.869,4.695c-1.908,-0 -2.861,-0.894 -2.861,-2.683c-0,-0.95 0.272,-1.705 0.817,-2.264c0.205,-0.223 1.022,-0.866 2.453,-1.928c1.226,-0.95 2.487,-2.376 3.781,-4.276c0.886,-1.286 1.329,-2.32 1.329,-3.102c-0,-0.895 -0.614,-1.342 -1.84,-1.342c-1.431,0 -3.611,0.923 -6.54,2.767c-4.633,2.962 -9.266,7.602 -13.899,13.918c-4.769,6.595 -7.153,11.794 -7.153,15.594c-0,1.23 0.442,2.32 1.328,3.27c1.295,1.454 3.032,2.18 5.212,2.18c4.292,0 9.368,-2.18 15.227,-6.54c4.973,-3.744 9.163,-7.489 12.57,-11.234c1.771,-2.068 3.304,-3.102 4.599,-3.102c0.749,-0 1.43,0.279 2.043,0.838c0.545,0.559 0.818,1.118 0.818,1.677c-0,2.068 -3.236,6.092 -9.708,12.073c-10.288,9.39 -19.622,14.086 -28.002,14.086c-5.041,-0 -8.89,-1.482 -11.548,-4.444c-1.907,-2.18 -2.861,-4.751 -2.861,-7.714c0,-5.813 2.93,-12.548 8.789,-20.206c5.654,-7.322 12.195,-13.219 19.621,-17.69c4.36,-2.571 8.175,-3.857 11.446,-3.857Z" style="fill-rule:nonzero;"/><path id="path826" d="M1959.57,588.539l0,1.51c0,1.229 0.375,2.291 1.124,3.186c1.704,2.068 4.497,3.102 8.38,3.102c8.516,-0 18.361,-5.366 29.534,-16.098c1.976,-1.844 3.645,-2.767 5.008,-2.767c0.749,0 1.431,0.308 2.044,0.923c0.409,0.447 0.613,0.866 0.613,1.257c-0,2.18 -3.27,5.869 -9.811,11.067c-5.109,4.081 -10.56,7.406 -16.351,9.978c-5.791,2.571 -11.173,3.856 -16.146,3.856c-5.11,0 -9.13,-1.453 -12.059,-4.36c-1.976,-2.012 -2.964,-4.751 -2.964,-8.216c0,-9.446 5.416,-18.697 16.249,-27.752c8.789,-7.378 16.453,-11.067 22.994,-11.067c1.771,0 3.372,0.447 4.803,1.342c1.771,1.173 2.657,2.71 2.657,4.611c-0,2.962 -1.669,6.595 -5.008,10.899c-6.881,8.944 -17.237,15.12 -31.067,18.529Zm2.248,-6.539c4.77,-1.342 8.517,-2.851 11.242,-4.528c4.769,-3.018 8.55,-6.428 11.343,-10.228c1.022,-1.342 1.533,-2.544 1.533,-3.606c0,-1.118 -0.647,-1.676 -1.941,-1.676c-1.772,-0 -4.293,1.089 -7.563,3.269c-5.859,3.857 -10.73,9.447 -14.614,16.769Z" style="fill-rule:nonzero;"/><path id="path828" d="M2137.18,509.225c-3.542,3.242 -8.243,8.608 -14.102,16.098c-5.928,7.601 -10.186,13.47 -12.775,17.606c14.716,-2.403 24.902,-3.605 30.556,-3.605c2.726,0 4.804,0.224 6.234,0.671c1.635,0.447 2.453,1.481 2.453,3.102c-0,3.466 -2.385,5.198 -7.154,5.198l-1.635,0c-2.044,-0.056 -3.543,-0.083 -4.496,-0.083c-6.745,-0 -17.952,1.816 -33.622,5.449c-9.947,14.03 -18.702,30.798 -26.264,50.306c-1.022,2.962 -2.623,4.443 -4.803,4.443c-1.908,0 -3.509,-0.866 -4.803,-2.599c-1.022,-1.286 -1.533,-2.571 -1.533,-3.857c-0,-1.453 1.873,-6.372 5.621,-14.756c6.199,-13.806 15.056,-28.618 26.57,-44.436c7.29,-9.894 15.295,-20.374 24.016,-31.441c-2.317,-0.28 -3.475,-1.342 -3.475,-3.186c-0,-2.739 3.236,-4.835 9.708,-6.288c8.993,-2.068 17.748,-3.661 26.264,-4.779c9.675,-1.286 17.033,-1.928 22.074,-1.928c7.971,-0 11.957,1.648 11.957,4.946c-0,1.677 -0.92,3.047 -2.759,4.108c-0.75,0.448 -1.601,0.671 -2.555,0.671c-0.818,0 -1.976,-0.084 -3.475,-0.251c-2.316,-0.28 -4.326,-0.42 -6.029,-0.42c-3.679,0 -9.879,0.587 -18.6,1.761c-6.268,0.782 -12.059,1.872 -17.373,3.27l0,-0Z" style="fill-rule:nonzero;"/><path id="path830" d="M2183.17,550.559c5.586,0 8.38,2.795 8.38,8.384c-0,7.434 -4.19,16.852 -12.57,28.255c-9.13,12.353 -17.952,18.529 -26.469,18.529c-3.951,0 -6.846,-1.509 -8.686,-4.527c-0.954,-1.51 -1.431,-3.326 -1.431,-5.45c0,-7.155 2.998,-14.924 8.993,-23.308c5.587,-7.77 12.161,-13.806 19.724,-18.11c4.428,-2.515 8.448,-3.773 12.059,-3.773Zm-10.628,31.692c-1.704,-1.118 -2.555,-1.984 -2.555,-2.599c-0,-0.447 1.09,-1.677 3.27,-3.689c6.132,-5.645 9.197,-10.201 9.197,-13.666c0,-0.447 -0.17,-0.894 -0.511,-1.342c-0.545,-0.838 -1.397,-1.257 -2.555,-1.257c-2.18,-0 -5.382,1.733 -9.606,5.198c-5.45,4.472 -9.606,9.083 -12.468,13.834c-3.338,5.422 -5.007,9.921 -5.007,13.498c-0,0.951 0.306,1.789 0.92,2.516c0.885,1.006 2.009,1.509 3.372,1.509c3.27,-0 6.779,-2.012 10.526,-6.037c1.635,-1.677 2.964,-3.409 3.986,-5.198c1.022,-1.789 1.498,-2.711 1.43,-2.767l0.001,0Z" style="fill-rule:nonzero;"/><path id="path832" d="M2210.87,577.053c6.677,-5.869 14.376,-11.598 23.096,-17.188c3.134,-2.012 6.472,-3.884 10.015,-5.617c1.772,-0.838 2.896,-1.258 3.373,-1.258c1.021,0 2.043,0.615 3.065,1.845c0.614,0.671 0.92,1.286 0.92,1.844c0,1.007 -1.294,2.376 -3.883,4.109c-6.949,4.527 -10.424,7.937 -10.424,10.228c-0,1.286 0.886,1.929 2.657,1.929c2.93,-0 7.971,-1.984 15.125,-5.953c1.226,-0.671 2.248,-1.006 3.066,-1.006c0.545,-0 1.09,0.224 1.635,0.671c0.613,0.503 0.919,1.034 0.919,1.593c0,1.677 -2.861,4.248 -8.584,7.713c-5.995,3.689 -11.684,5.534 -17.066,5.534c-2.18,-0 -4.19,-0.475 -6.03,-1.426c-1.567,-0.782 -2.35,-2.179 -2.35,-4.192c-0,-1.397 0.715,-2.99 2.146,-4.779c-5.382,3.13 -11.718,8.496 -19.008,16.098c-4.224,4.695 -8.414,10.48 -12.57,17.355c-1.567,2.571 -3.509,3.857 -5.825,3.857c-2.521,-0 -3.781,-0.978 -3.781,-2.934c-0,-1.901 1.975,-6.987 5.927,-15.26c5.859,-12.297 11.991,-21.827 18.395,-28.59c3.951,-4.192 7.256,-6.288 9.913,-6.288c0.885,-0 1.703,0.224 2.452,0.671c0.886,0.559 1.329,1.257 1.329,2.096c-0,0.838 -0.681,2.012 -2.044,3.521c-0.272,0.28 -2.078,2.152 -5.416,5.618c-3.066,3.297 -5.417,6.567 -7.052,9.809Z" style="fill-rule:nonzero;"/><path id="path834" d="M2379.18,549.972c-5.382,4.304 -11.923,9.279 -19.621,14.924c-4.361,3.186 -8.244,5.757 -11.651,7.713c-3.542,2.124 -7.255,3.186 -11.139,3.186c-3.883,0 -6.847,-1.676 -8.891,-5.03c-1.09,-1.789 -1.635,-3.717 -1.635,-5.785c0,-7.043 3.475,-15.79 10.424,-26.243c6.2,-9.334 14.75,-18.389 25.651,-27.165c10.832,-8.775 18.497,-13.163 22.993,-13.163c1.09,0 2.044,0.336 2.862,1.006c0.749,0.671 1.124,1.482 1.124,2.432c0,1.565 -0.681,2.85 -2.044,3.857c-1.09,0.782 -2.691,1.704 -4.803,2.766c-3.815,1.957 -8.55,5.199 -14.205,9.726c-8.993,7.266 -16.147,15.119 -21.461,23.56c-5.859,9.334 -8.788,15.93 -8.788,19.786c-0,0.839 0.306,1.593 0.919,2.264c0.818,0.95 1.908,1.425 3.271,1.425c2.588,0 7.017,-2.04 13.285,-6.12c7.494,-4.751 13.558,-9.195 18.19,-13.331c13.49,-11.961 23.607,-21.659 30.352,-29.093c6.472,-7.211 11.923,-12.968 16.351,-17.272c3.747,-3.633 6.643,-5.449 8.686,-5.449c1.363,-0 2.521,0.559 3.475,1.676c0.749,0.895 1.124,1.929 1.124,3.103c0,1.956 -1.294,4.304 -3.883,7.042c-18.463,19.899 -30.692,33.453 -36.688,40.664c-9.061,11.067 -16.93,22.553 -23.607,34.459c-7.698,13.526 -12.365,22.553 -14,27.081c-1.567,4.192 -3.032,6.847 -4.395,7.965c-1.362,1.118 -2.895,1.677 -4.598,1.677c-3.202,-0 -4.803,-1.258 -4.803,-3.773c-0,-2.739 2.146,-8.329 6.438,-16.769c5.041,-10.005 11.207,-19.954 18.497,-29.847c6.2,-8.385 10.39,-14.142 12.57,-17.272Z" style="fill-rule:nonzero;"/><path id="path836" d="M2434.26,550.559c5.587,0 8.38,2.795 8.38,8.384c0,7.434 -4.19,16.852 -12.57,28.255c-9.129,12.353 -17.952,18.529 -26.468,18.529c-3.951,0 -6.847,-1.509 -8.686,-4.527c-0.954,-1.51 -1.431,-3.326 -1.431,-5.45c-0,-7.155 2.998,-14.924 8.993,-23.308c5.587,-7.77 12.161,-13.806 19.723,-18.11c4.429,-2.515 8.448,-3.773 12.059,-3.773Zm-10.628,31.692c-1.703,-1.118 -2.555,-1.984 -2.555,-2.599c0,-0.447 1.09,-1.677 3.271,-3.689c6.131,-5.645 9.197,-10.201 9.197,-13.666c-0,-0.447 -0.17,-0.894 -0.511,-1.342c-0.545,-0.838 -1.396,-1.257 -2.555,-1.257c-2.18,-0 -5.382,1.733 -9.606,5.198c-5.45,4.472 -9.606,9.083 -12.467,13.834c-3.339,5.422 -5.008,9.921 -5.008,13.498c0,0.951 0.307,1.789 0.92,2.516c0.885,1.006 2.01,1.509 3.372,1.509c3.27,-0 6.779,-2.012 10.526,-6.037c1.635,-1.677 2.964,-3.409 3.986,-5.198c1.022,-1.789 1.499,-2.711 1.43,-2.767l0,0Z" style="fill-rule:nonzero;"/><path id="path838" d="M2471.87,591.809c-2.93,3.354 -5.519,6.037 -7.767,8.049c-3.951,3.577 -7.869,5.366 -11.752,5.366c-3.339,0 -5.928,-1.23 -7.767,-3.689c-1.295,-1.733 -1.942,-3.801 -1.942,-6.204c0,-7.211 3.747,-15.483 11.242,-24.818c3.474,-4.359 6.915,-7.685 10.321,-9.977c2.657,-1.844 4.837,-2.767 6.541,-2.767c0.953,0 1.839,0.336 2.657,1.007c0.681,0.614 1.022,1.229 1.022,1.844c-0,1.062 -1.261,2.795 -3.782,5.198c-5.654,5.534 -9.946,10.62 -12.876,15.26c-3.406,5.421 -5.11,9.669 -5.11,12.744c0,0.782 0.205,1.397 0.613,1.844c0.477,0.391 1.125,0.587 1.942,0.587c3.475,-0 8.312,-4.08 14.512,-12.241c3.202,-4.248 5.961,-8.943 8.277,-14.085c1.227,-2.795 2.828,-5.283 4.803,-7.462c1.908,-1.957 3.782,-2.935 5.621,-2.935c1.022,0 1.942,0.363 2.759,1.09c0.886,0.783 1.329,1.649 1.329,2.599c-0,2.012 -2.351,6.54 -7.051,13.583c-3.203,4.862 -4.804,8.915 -4.804,12.157c0,3.465 1.125,6.428 3.373,8.887c0.613,0.671 2.487,1.733 5.621,3.186c1.498,0.727 2.248,1.9 2.248,3.521c-0,1.006 -0.545,1.873 -1.635,2.599c-1.022,0.727 -2.283,1.09 -3.781,1.09c-3.407,0 -6.507,-1.118 -9.3,-3.353c-2.521,-2.013 -4.122,-4.919 -4.803,-8.72c-0.137,-0.503 -0.307,-1.956 -0.511,-4.36l-0,0Z" style="fill-rule:nonzero;"/><path id="path841" d="M2561.19,488.6l-27.796,88.034l-12.366,-0l17.782,-88.034l22.38,-0Zm-53.345,115.702c0,-4.192 1.431,-7.546 4.292,-10.061c2.862,-2.571 6.677,-3.857 11.446,-3.857c3.134,-0 5.689,0.81 7.664,2.431c1.976,1.565 2.964,3.857 2.964,6.875c0,3.913 -1.397,7.211 -4.19,9.894c-2.725,2.683 -6.404,4.024 -11.037,4.024c-3.611,0 -6.37,-0.81 -8.278,-2.431c-1.907,-1.621 -2.861,-3.913 -2.861,-6.875Z" style="fill-rule:nonzero;"/></g></svg>